<?xml version="1.0" encoding="UTF-8"?>
<svg id="Layer_1" data-name="Layer 1" xmlns="http://www.w3.org/2000/svg" viewBox="0 0 298 95">
  <path d="M.02,93.72c6.14,0,9.34-3.46,13.95-16.77L41.1.54h1.02l34.3,93.18h6.66v1.28h-33.54v-1.28h8.96l-11.52-32.51h-25.98l-5.76,16.26c-3.46,9.73-1.92,16.26,9.09,16.26v1.28H.02v-1.28ZM21.71,59.41h25l-12.77-34.68-12.23,34.68ZM102.4,93.72c9.34,0,10.75-4.61,10.75-14.98V17.05c0-10.37-1.41-13.95-10.75-13.95v-1.28h28.8l22.91,66.56L175.49,1.82h26.62v1.28h-8.96v90.62h8.96v1.28h-35.46v-1.28h9.09V5.53l-28.93,89.47h-1.02L114.43,5.14v73.6c0,10.37,1.02,14.98,12.93,14.98v1.28h-24.96v-1.28ZM225.24,95v-1.28h9.09V3.1h-9.09v-1.28h32.51c24.7,0,35.71,8.45,35.71,21.76s-11.65,20.22-28.29,21.76c16.9.64,32.26,7.3,32.26,24.58,0,15.36-10.88,25.09-38.14,25.09h-34.05ZM251.53,93.41h7.76c16.28-.42,20.74-9.67,20.74-23.5,0-15.36-8.32-23.81-22.27-23.81h-6.02l-.21,47.3ZM251.74,44.82h6.02c13.95,0,19.2-9.47,19.2-21.25s-4.99-20.48-19.2-20.48h-6.02v41.73Z"/>
</svg>