<?xml version="1.0" encoding="UTF-8"?>
<svg id="Layer_1" xmlns="http://www.w3.org/2000/svg" version="1.1" viewBox="0 0 95 298">
  <!-- Generator: Adobe Illustrator 29.5.0, SVG Export Plug-In . SVG Version: 2.1.0 Build 137)  -->
  <defs>
    <style>
      .st0 {
        fill: #fff;
      }
    </style>
  </defs>
  <path d="M-947,205.2c6.1,0,9.3-3.5,14-16.8l27.1-76.4h1l34.3,93.2h6.7v1.3h-33.5v-1.3h9l-11.5-32.5h-26l-5.8,16.3c-3.5,9.7-1.9,16.3,9.1,16.3v1.3h-24.3v-1.3ZM-925.3,170.9h25l-12.8-34.7-12.2,34.7ZM-844.6,205.2c9.3,0,10.8-4.6,10.8-15v-61.7c0-10.4-1.4-14-10.8-14v-1.3h28.8l22.9,66.6,21.4-66.6h26.6v1.3h-9v90.6h9v1.3h-35.5v-1.3h9.1v-88.2l-28.9,89.5h-1l-31.4-89.9v73.6c0,10.4,1,15,12.9,15v1.3h-25v-1.3ZM-721.8,206.5v-1.3h9.1v-90.6h-9.1v-1.3h32.5c24.7,0,35.7,8.4,35.7,21.8s-11.6,20.2-28.3,21.8c16.9.6,32.3,7.3,32.3,24.6s-10.9,25.1-38.1,25.1h-34ZM-695.5,204.9h7.8c16.3-.4,20.7-9.7,20.7-23.5s-8.3-23.8-22.3-23.8h-6l-.2,47.3ZM-695.3,156.3h6c14,0,19.2-9.5,19.2-21.2s-5-20.5-19.2-20.5h-6v41.7Z"/>
  <g>
    <path class="st0" d="M-913.1,251.2l-12.2,34.7h25l-12.8-34.7Z"/>
    <path class="st0" d="M-900.1,287.7h-26c-2.2,6.5-6.9,19.1-7.1,21.2s-.5,6.6,1.8,8.7c2,2,6.5,2.6,8.6,2.6v1.3h25.2v-1.3h9l-11.5-32.5Z"/>
    <path class="st0" d="M-695.3,271.3v-41.7c4.8-.2,10.6,0,13.1.9,3.4.9,6.4,3.1,7.5,4.6,2,2.4,3.5,5.7,4.1,9.4.6,3.8.5,6.5.4,8-.3,4.4-1,6.5-1.7,8.2s-1.7,3.7-4.2,6.2c-1.5,1.5-4.7,3.4-8.8,4.1s-7.8.3-10.5.4Z"/>
    <path class="st0" d="M-695.5,319.9l.2-47.3c4.1,0,9.7-.3,13.3.9,3.8,1.1,6.4,2.5,8.9,5,2.4,2.4,4.1,5.7,4.9,8.9,1.1,4,1.2,7.4,1.2,9.9,0,4-.5,9-2.5,13.2-1.4,3.3-4.1,5.7-7.5,7.3s-7.9,2.2-9.9,2.2h-8.5Z"/>
    <path class="st0" d="M-832.6,306.4v-74.8s31.4,89.9,31.4,89.9h-18.4v-1.3h-3.3c-2.7-.6-4.4-.7-6.7-2.6-2.2-2.1-2.9-5.7-2.9-11.2Z"/>
    <path class="st0" d="M-780.4,321.5h-19.8l28.9-89.5v88.2h-9.1v1.3Z"/>
    <path class="st0" d="M-771.6,228.3h-44.3l22.9,66.6,21.4-66.6Z"/>
  </g>
  <path d="M6,98.2c6.1,0,9.3-3.5,14-16.8L47.1,5h1l34.3,93.2h6.7v1.3h-33.5v-1.3h9l-11.5-32.5h-26l-5.8,16.3c-3.5,9.7-1.9,16.3,9.1,16.3v1.3H6v-1.3ZM27.7,63.9h25l-12.8-34.7-12.2,34.7Z"/>
  <path d="M.9,195.2c9.3,0,10.8-4.6,10.8-15v-61.7c0-10.4-1.4-14-10.8-14v-1.3h28.8l22.9,66.6,21.4-66.6h26.6v1.3h-9v90.6h9v1.3h-35.5v-1.3h9.1v-88.2l-28.9,89.5h-1L12.9,106.6v73.6c0,10.4,1,15,12.9,15v1.3H.9v-1.3Z"/>
  <path d="M15.7,279.3v-1.3h9.1v-90.6h-9.1v-1.3h32.5c24.7,0,35.7,8.4,35.7,21.8s-11.6,20.2-28.3,21.8c16.9.6,32.3,7.3,32.3,24.6s-10.9,25.1-38.1,25.1H15.7ZM42,277.7h7.8c16.3-.4,20.7-9.7,20.7-23.5s-8.3-23.8-22.3-23.8h-6l-.2,47.3ZM42.2,229.1h6c14,0,19.2-9.5,19.2-21.2s-5-20.5-19.2-20.5h-6v41.7Z"/>
  <g>
    <path class="st0" d="M-67.6,534.8l-12.2,34.7h25l-12.8-34.7Z"/>
    <path class="st0" d="M-54.5,571.2h-26c-2.2,6.5-6.9,19.1-7.1,21.2s-.5,6.6,1.8,8.7c2,2,6.5,2.6,8.6,2.6v1.3h25.2v-1.3h9l-11.5-32.5Z"/>
    <path class="st0" d="M150.2,554.9v-41.7c4.8-.2,10.6,0,13.1.9,3.4.9,6.4,3.1,7.5,4.6,2,2.4,3.5,5.7,4.1,9.4.6,3.8.5,6.5.4,8-.3,4.4-1,6.5-1.7,8.2s-1.7,3.7-4.2,6.2c-1.5,1.5-4.7,3.4-8.8,4.1s-7.8.3-10.5.4Z"/>
    <path class="st0" d="M150,603.4l.2-47.3c4.1,0,9.7-.3,13.3.9,3.8,1.1,6.4,2.5,8.9,5,2.4,2.4,4.1,5.7,4.9,8.9,1.1,4,1.2,7.4,1.2,9.9,0,4-.5,9-2.5,13.2-1.4,3.3-4.1,5.7-7.5,7.3s-7.9,2.2-9.9,2.2h-8.5Z"/>
    <path class="st0" d="M12.9,590v-74.8s31.4,89.9,31.4,89.9h-18.4v-1.3h-3.3c-2.7-.6-4.4-.7-6.7-2.6-2.2-2.1-2.9-5.7-2.9-11.2Z"/>
    <path class="st0" d="M65.1,605h-19.8l28.9-89.5v88.2h-9.1v1.3Z"/>
    <path class="st0" d="M74,511.9H29.7l22.9,66.6,21.4-66.6Z"/>
  </g>
</svg>