<?xml version="1.0" encoding="UTF-8"?>
<svg id="Layer_1" data-name="Layer 1" xmlns="http://www.w3.org/2000/svg" viewBox="0 0 297.42 94.46">
  <defs>
    <style>
      .cls-1 {
        fill: #fff;
      }
    </style>
  </defs>
  <path d="M0,93.18c6.14,0,9.34-3.46,13.95-16.77L41.09,0h1.02l34.3,93.18h6.66v1.28h-33.54v-1.28h8.96l-11.52-32.51h-25.98l-5.76,16.26c-3.46,9.73-1.92,16.26,9.09,16.26v1.28H0v-1.28ZM21.69,58.87h25l-12.77-34.68-12.23,34.68ZM102.38,93.18c9.34,0,10.75-4.61,10.75-14.98V16.51c0-10.37-1.41-13.95-10.75-13.95v-1.28h28.8l22.91,66.56L175.47,1.28h26.62v1.28h-8.96v90.62h8.96v1.28h-35.46v-1.28h9.09V4.99l-28.93,89.47h-1.02L114.42,4.61v73.6c0,10.37,1.02,14.98,12.93,14.98v1.28h-24.96v-1.28ZM225.23,94.46v-1.28h9.09V2.56h-9.09v-1.28h32.51c24.7,0,35.71,8.45,35.71,21.76s-11.65,20.22-28.29,21.76c16.9.64,32.26,7.3,32.26,24.58,0,15.36-10.88,25.09-38.14,25.09h-34.05ZM251.51,92.87h7.76c16.28-.42,20.74-9.67,20.74-23.5,0-15.36-8.32-23.81-22.27-23.81h-6.02l-.21,47.3ZM251.72,44.29h6.02c13.95,0,19.2-9.47,19.2-21.25s-4.99-20.48-19.2-20.48h-6.02v41.73Z"/>
  <g>
    <path class="cls-1" d="M33.92,24.19l-12.23,34.68h25l-12.77-34.68Z"/>
    <path class="cls-1" d="M46.98,60.67h-25.98c-2.17,6.5-6.86,19.06-7.12,21.23-.36,2.98-.53,6.57,1.83,8.7,2,2,6.46,2.58,8.62,2.58v1.28h25.22v-1.28h8.96l-11.52-32.51Z"/>
    <path class="cls-1" d="M251.72,44.29V2.56c4.75-.15,10.62-.03,13.12.89,3.38.88,6.41,3.15,7.54,4.56,2.04,2.37,3.55,5.7,4.13,9.37.59,3.84.47,6.5.36,7.99-.32,4.44-1.05,6.49-1.71,8.19s-1.66,3.72-4.15,6.22c-1.48,1.55-4.72,3.37-8.77,4.14-2.84.54-7.8.35-10.51.37Z"/>
    <path class="cls-1" d="M251.51,92.87l.21-47.3c4.06.05,9.66-.26,13.25.88,3.84,1.1,6.4,2.53,8.9,5.03,2.44,2.4,4.12,5.75,4.95,8.86,1.13,3.98,1.18,7.35,1.18,9.85,0,4-.54,9.02-2.54,13.19-1.38,3.31-4.12,5.72-7.51,7.34-2.79,1.33-7.94,2.16-9.94,2.16h-8.5Z"/>
    <path class="cls-1" d="M114.42,79.39V4.61s31.35,89.86,31.35,89.86h-18.43v-1.28l-3.28-.07c-2.7-.51-4.44-.59-6.74-2.49-2.25-2.05-2.91-5.73-2.91-11.23Z"/>
    <path class="cls-1" d="M166.64,94.46h-19.84L175.73,4.99v88.19h-9.09v1.28Z"/>
    <path class="cls-1" d="M175.47,1.28h-44.29l22.91,66.55L175.47,1.28Z"/>
  </g>
</svg>