<svg width="345" height="226" viewBox="0 0 345 226" fill="none" xmlns="http://www.w3.org/2000/svg">
<g clip-path="url(#clip0_51_989)">
<g opacity="0.9">
<path d="M184.601 131.597C184.398 131.64 184.192 131.683 183.985 131.723C183.779 131.77 183.577 131.816 183.372 131.863C183.578 131.82 183.785 131.78 183.996 131.742C184.265 131.695 184.403 131.649 184.6 131.593L184.601 131.597Z" fill="white"/>
<path d="M182.242 132.151C182.167 132.171 182.096 132.191 182.027 132.206C181.963 132.225 181.903 132.246 181.845 132.263C181.977 132.222 182.109 132.185 182.242 132.147L182.242 132.151Z" fill="white"/>
<path d="M180.151 132.782C180.519 132.668 180.874 132.559 181.216 132.456C181.063 132.501 180.9 132.547 180.724 132.599C180.548 132.652 180.36 132.717 180.154 132.782L180.151 132.782Z" fill="white"/>
<path d="M181.823 132.303C181.693 132.329 181.626 132.337 181.835 132.269C181.835 132.269 181.842 132.267 181.846 132.267C181.636 132.332 181.429 132.39 181.212 132.456C181.44 132.392 181.645 132.345 181.823 132.299L181.823 132.303Z" fill="white"/>
<path d="M181.823 132.303C181.886 132.292 181.967 132.27 182.043 132.254C182.119 132.24 182.188 132.225 182.222 132.219C182.105 132.239 181.97 132.266 181.823 132.303Z" fill="white"/>
<path d="M181.362 132.68C181.153 132.749 181.186 132.672 180.772 132.809C179.801 133.126 178.985 133.429 178.08 133.735C177.672 133.889 176.999 134.039 176.592 134.196C176.11 134.373 175.257 134.691 174.71 134.905C174.163 135.119 173.915 135.23 174.644 134.974C175.192 134.785 175.692 134.611 176.162 134.446C176.632 134.282 177.079 134.125 177.515 133.973C178.388 133.666 179.235 133.371 180.223 133.055C181.022 132.79 181.812 132.54 182.61 132.314C183.408 132.089 184.22 131.885 185.064 131.719C185.182 131.698 185.299 131.677 185.416 131.653C185.53 131.633 185.645 131.617 185.76 131.6C185.874 131.58 185.985 131.564 186.1 131.547C186.211 131.531 186.323 131.519 186.438 131.506C185.851 131.573 185.251 131.665 184.588 131.788C183.714 131.946 182.693 132.282 181.366 132.683L181.362 132.68Z" fill="white"/>
<path d="M193.735 131.873C193.705 131.822 193.652 131.763 193.587 131.718C193.554 131.695 193.518 131.673 193.483 131.654C193.447 131.635 193.416 131.619 193.382 131.608C193.316 131.58 193.26 131.561 193.215 131.548C193.173 131.534 193.147 131.528 193.147 131.528C192.917 131.44 192.672 131.383 192.429 131.337C192.182 131.291 191.931 131.26 191.681 131.236C191.177 131.19 190.661 131.177 190.152 131.177C190.3 131.19 190.453 131.206 190.605 131.222C190.899 131.231 191.06 131.235 191.084 131.231C191.108 131.226 190.999 131.21 190.739 131.192C191.331 131.237 191.911 131.292 192.478 131.392C192.762 131.446 193.039 131.504 193.308 131.613C193.373 131.641 193.44 131.672 193.499 131.708C193.56 131.747 193.617 131.791 193.663 131.847C193.705 131.904 193.732 131.977 193.727 132.05C193.718 132.122 193.687 132.188 193.648 132.249C193.663 132.235 193.672 132.227 193.685 132.217C193.698 132.208 193.71 132.195 193.723 132.171C193.728 132.16 193.74 132.147 193.745 132.132C193.753 132.116 193.76 132.097 193.766 132.071C193.776 132.023 193.778 131.955 193.739 131.873L193.735 131.873Z" fill="white"/>
<path d="M193.134 132.689C193.23 132.629 193.322 132.563 193.409 132.491C193.496 132.418 193.578 132.34 193.644 132.249C193.637 132.251 193.632 132.259 193.626 132.267C193.56 132.357 193.474 132.436 193.387 132.509C193.299 132.578 193.208 132.644 193.111 132.703C193.118 132.702 193.124 132.697 193.134 132.692L193.134 132.689Z" fill="white"/>
<path d="M175.779 134.314C173.027 135.247 170.461 136.183 167.957 137.104C167.769 137.188 167.641 137.253 167.379 137.342C167.179 137.402 166.981 137.469 166.782 137.536C166.417 137.671 166.052 137.803 165.687 137.939C165.56 137.986 165.434 138.037 165.304 138.088C165.304 138.088 165.297 138.089 165.293 138.09C165.09 138.172 165.156 138.16 165.285 138.123C165.43 138.077 165.562 138.039 165.674 138.005C165.603 138.025 165.41 138.087 165.285 138.123C165.109 138.179 164.914 138.246 164.689 138.324C164.359 138.45 164.012 138.586 163.649 138.714C164.046 138.559 164.391 138.43 164.689 138.324C164.9 138.245 165.1 138.167 165.304 138.088C165.36 138.064 165.42 138.039 165.48 138.018C165.061 138.17 164.647 138.325 164.231 138.476C163.817 138.631 163.401 138.783 162.986 138.934C162.795 139.003 162.614 139.071 162.464 139.129C162.163 139.243 161.861 139.349 161.588 139.44C161.45 139.486 161.319 139.527 161.2 139.562C161.078 139.598 160.968 139.624 160.872 139.644C160.723 139.688 160.571 139.733 160.418 139.778C160.446 139.773 160.48 139.767 160.508 139.762C160.44 139.781 160.381 139.791 160.333 139.803C160.015 139.895 159.69 139.974 159.364 140.049L159.121 140.102L158.996 140.124C158.997 140.127 158.873 140.153 158.873 140.153L158.627 140.196C158.628 140.199 158.378 140.24 158.378 140.24C157.955 140.325 157.511 140.392 157.065 140.435C157.065 140.435 156.99 140.434 156.894 140.433C156.847 140.431 156.794 140.433 156.747 140.43C156.697 140.428 156.65 140.426 156.615 140.425C156.57 140.433 156.52 140.435 156.464 140.441C156.436 140.446 156.408 140.444 156.38 140.449C156.352 140.45 156.32 140.452 156.288 140.451C156.164 140.454 156.022 140.458 155.867 140.453C155.911 140.46 155.958 140.462 156.002 140.469C156.045 140.472 156.089 140.475 156.132 140.478C156.219 140.484 156.305 140.49 156.388 140.497C156.471 140.5 156.554 140.504 156.632 140.504C156.671 140.504 156.711 140.508 156.75 140.508C156.79 140.508 156.829 140.509 156.868 140.509C157.094 140.516 157.347 140.478 157.607 140.436C157.739 140.413 157.871 140.393 158.003 140.374C158.134 140.35 158.268 140.341 158.402 140.332C158.268 140.341 158.135 140.354 158.003 140.374C157.871 140.397 157.739 140.413 157.607 140.436C157.348 140.482 157.097 140.515 156.868 140.509C156.829 140.509 156.79 140.508 156.75 140.508C156.711 140.508 156.671 140.504 156.632 140.504C156.553 140.5 156.47 140.497 156.388 140.497C156.305 140.49 156.219 140.484 156.132 140.478C156.089 140.475 156.045 140.472 156.002 140.469C155.959 140.466 155.915 140.459 155.867 140.453C155.788 140.449 155.706 140.449 155.623 140.443C155.54 140.436 155.453 140.43 155.366 140.42C155.28 140.414 155.188 140.401 155.1 140.388C155.056 140.382 155.009 140.376 154.965 140.369L154.896 140.36L154.829 140.347C154.741 140.33 154.648 140.311 154.56 140.294C154.471 140.274 154.381 140.251 154.296 140.23C154.251 140.22 154.21 140.21 154.165 140.196C154.123 140.182 154.082 140.172 154.04 140.158C153.958 140.133 153.878 140.108 153.799 140.082C154.194 140.18 154.564 140.255 154.906 140.319C154.991 140.333 155.079 140.346 155.16 140.36C155.2 140.367 155.24 140.374 155.284 140.381C155.324 140.385 155.365 140.392 155.405 140.395C155.485 140.406 155.565 140.417 155.642 140.429C155.718 140.437 155.795 140.444 155.871 140.452C156.022 140.462 156.164 140.454 156.291 140.45C156.323 140.448 156.354 140.446 156.383 140.448C156.411 140.443 156.44 140.445 156.468 140.44C156.523 140.434 156.572 140.429 156.618 140.424C156.654 140.425 156.701 140.428 156.751 140.43C156.801 140.432 156.851 140.433 156.897 140.432C156.99 140.434 157.069 140.434 157.069 140.434C157.515 140.395 157.958 140.324 158.382 140.239C157.738 140.349 157.082 140.407 156.42 140.413C156.088 140.411 155.758 140.401 155.428 140.366C155.262 140.353 155.097 140.328 154.932 140.304C154.848 140.29 154.767 140.276 154.686 140.262L154.561 140.241C154.521 140.234 154.48 140.223 154.439 140.216C153.913 140.102 153.396 139.939 152.907 139.733C152.667 139.625 152.441 139.494 152.259 139.312C152.215 139.266 152.172 139.22 152.134 139.17C152.097 139.12 152.06 139.069 152.028 139.01C151.993 138.956 151.969 138.9 151.938 138.844C151.913 138.785 151.889 138.728 151.871 138.667C151.797 138.427 151.787 138.169 151.829 137.919C151.85 137.794 151.885 137.67 151.924 137.549C151.968 137.431 152.021 137.311 152.08 137.197C152.142 137.083 152.208 136.975 152.282 136.869C152.356 136.764 152.439 136.664 152.525 136.567C152.698 136.372 152.888 136.2 153.097 136.049C153.201 135.973 153.31 135.904 153.421 135.842C153.536 135.786 153.649 135.724 153.769 135.674C153.829 135.649 153.888 135.621 153.949 135.603C154.009 135.582 154.069 135.557 154.13 135.536L154.315 135.478C154.376 135.46 154.442 135.445 154.503 135.427C154.755 135.365 155.011 135.317 155.269 135.285C155.527 135.254 155.787 135.234 156.05 135.227C156.312 135.216 156.572 135.217 156.834 135.228C156.966 135.229 157.096 135.239 157.226 135.244L157.424 135.256L157.616 135.272C158.128 135.328 158.625 135.48 159.089 135.708C159.554 135.937 159.987 136.231 160.385 136.571C160.784 136.911 161.156 137.284 161.507 137.679C161.858 138.074 162.195 138.489 162.522 138.912C162.85 139.336 163.178 139.763 163.503 140.194C164.154 141.057 164.804 141.937 165.507 142.794C165.597 142.899 165.684 143.009 165.774 143.114C165.864 143.22 165.954 143.325 166.044 143.434C166.137 143.539 166.231 143.644 166.324 143.748C166.417 143.853 166.513 143.954 166.61 144.058C166.996 144.468 167.4 144.864 167.83 145.241C168.065 145.442 168.3 145.64 168.531 145.838C168.651 145.938 168.772 146.035 168.902 146.126C169.032 146.217 169.165 146.304 169.316 146.374C169.39 146.411 169.47 146.439 169.557 146.463C169.642 146.484 169.738 146.499 169.839 146.489C169.944 146.477 170.044 146.438 170.126 146.378C170.208 146.317 170.278 146.226 170.315 146.134C170.352 146.042 170.372 145.953 170.378 145.866C170.384 145.78 170.384 145.694 170.38 145.613C170.369 145.451 170.342 145.295 170.304 145.141C170.233 144.836 170.139 144.546 170.039 144.261C169.989 144.12 169.94 143.979 169.886 143.839C169.837 143.698 169.79 143.556 169.741 143.415C169.541 142.848 169.315 142.292 169.076 141.746C168.599 140.653 168.075 139.601 167.59 138.542C167.531 138.409 167.469 138.278 167.41 138.146L167.321 137.947L167.236 137.748C167.178 137.616 167.122 137.483 167.066 137.347C167.011 137.214 166.955 137.081 166.899 136.945C166.68 136.409 166.465 135.873 166.26 135.335C166.028 134.727 165.807 134.117 165.597 133.512C165.387 132.904 165.191 132.297 165.002 131.688C164.624 130.471 164.292 129.253 163.992 128.033C163.838 127.422 163.684 126.811 163.531 126.203C163.378 125.596 163.232 124.987 163.097 124.38C162.957 123.766 162.811 123.139 162.569 122.533C162.506 122.38 162.441 122.231 162.364 122.08C162.347 122.044 162.326 122.005 162.306 121.97L162.275 121.914L162.225 121.834L162.175 121.754L162.122 121.674L162.069 121.594L162.012 121.518L161.956 121.443L161.898 121.375C161.88 121.353 161.858 121.328 161.84 121.31L161.78 121.249C161.759 121.231 161.74 121.206 161.72 121.192L161.66 121.138C161.619 121.103 161.581 121.07 161.539 121.038C161.457 120.974 161.374 120.91 161.288 120.844L161.152 120.743C161.14 120.731 161.133 120.732 161.125 120.73L161.103 120.723L161.062 120.694L161.007 121.275C160.999 121.369 160.991 121.466 160.983 121.564C160.975 121.662 160.965 121.763 160.96 121.857L160.942 122.138L160.936 122.267L160.93 122.358C160.923 122.48 160.919 122.598 160.916 122.72C160.897 123.205 160.893 123.687 160.881 124.167C160.877 124.406 160.869 124.646 160.862 124.887C160.858 125.005 160.854 125.127 160.846 125.246C160.839 125.365 160.835 125.487 160.828 125.606C160.802 126.088 160.773 126.574 160.745 127.061C160.63 129.002 160.491 130.97 160.331 132.98C160.26 133.87 160.183 134.953 160.104 136.129C160.065 136.717 160.023 137.327 159.979 137.951C159.939 138.571 159.892 139.2 159.84 139.833C159.737 141.092 159.623 142.352 159.539 143.515C159.495 144.097 159.458 144.656 159.431 145.174C159.426 145.303 159.42 145.433 159.414 145.559C159.407 145.706 159.4 145.846 159.396 145.986C159.384 146.223 159.381 146.449 159.373 146.667C159.369 146.889 159.36 147.101 159.358 147.312C159.358 147.533 159.356 147.744 159.353 147.912C159.408 147.881 159.456 147.851 159.509 147.824C159.522 147.818 159.535 147.812 159.544 147.803C159.558 147.797 159.564 147.793 159.586 147.778C159.625 147.753 159.66 147.733 159.699 147.712C159.841 147.626 159.95 147.557 160.052 147.489C160.154 147.421 160.244 147.341 160.334 147.244C160.42 147.15 160.504 147.039 160.579 146.915C160.653 146.792 160.719 146.659 160.779 146.534C160.795 146.503 160.808 146.476 160.824 146.444C160.832 146.429 160.84 146.413 160.845 146.402L160.856 146.382L160.866 146.362C160.885 146.327 160.904 146.291 160.923 146.256C160.947 146.212 160.969 146.173 160.989 146.148C161.001 146.132 161.01 146.123 161.018 146.111C161.027 146.102 161.036 146.09 161.042 146.082C161.071 146.048 161.104 146.028 161.132 146.009C161.15 146.006 161.162 145.993 161.178 145.986C161.192 145.984 161.208 145.974 161.218 145.969C161.268 145.949 161.286 145.928 161.271 145.906C161.256 145.884 161.216 145.859 161.157 145.844C161.097 145.83 161.019 145.829 160.938 145.854C160.86 145.878 160.788 145.934 160.732 145.983C160.677 146.032 160.642 146.081 160.625 146.102C160.538 146.217 160.469 146.329 160.404 146.429C160.34 146.53 160.277 146.619 160.205 146.696C160.137 146.772 160.058 146.832 159.973 146.876C159.953 146.886 159.93 146.897 159.91 146.905L159.893 146.908L159.887 146.912L159.883 146.913C159.883 146.913 159.883 146.913 159.883 146.909L159.885 146.863C159.889 146.801 159.896 146.74 159.899 146.678C159.916 146.469 159.932 146.256 159.948 146.042C159.954 145.995 159.955 145.945 159.961 145.897C159.967 145.829 159.972 145.756 159.975 145.688C159.985 145.544 159.994 145.396 160.008 145.248C160.048 144.649 160.1 144.008 160.16 143.296C160.219 142.579 160.298 141.792 160.386 140.892C160.432 140.442 160.476 139.967 160.526 139.459C160.576 138.951 160.627 138.411 160.675 137.836C160.591 138.817 160.543 139.128 160.541 138.979C160.537 138.833 160.566 138.229 160.618 137.39C160.719 135.711 160.911 133.074 161.106 131.222C161.257 129.812 161.38 128.239 161.478 126.568C161.491 126.359 161.501 126.15 161.513 125.938C161.526 125.725 161.538 125.513 161.546 125.294C161.566 124.859 161.571 124.42 161.579 123.98C161.587 123.54 161.592 123.1 161.604 122.66C161.61 122.495 161.617 122.33 161.623 122.164L161.622 122.157C161.623 122.161 161.63 122.163 161.631 122.167C161.636 122.173 161.643 122.175 161.648 122.182C161.652 122.188 161.661 122.194 161.665 122.2C161.67 122.206 161.675 122.212 161.685 122.232L161.716 122.287C161.727 122.307 161.737 122.326 161.749 122.349C161.77 122.392 161.791 122.431 161.81 122.474C161.853 122.559 161.89 122.645 161.927 122.735C162.001 122.914 162.065 123.096 162.127 123.284C162.247 123.663 162.344 124.052 162.435 124.45C162.527 124.851 162.623 125.254 162.722 125.658C162.921 126.46 163.128 127.255 163.323 128.037C163.372 128.235 163.42 128.43 163.469 128.624C163.518 128.823 163.566 129.017 163.618 129.211C163.719 129.6 163.822 129.985 163.929 130.369C164.372 131.981 164.936 133.668 165.656 135.53C165.887 136.135 166.124 136.735 166.371 137.326C166.433 137.476 166.494 137.622 166.556 137.772C166.622 137.92 166.683 138.067 166.748 138.215C166.878 138.51 167.011 138.8 167.148 139.09C167.686 140.243 168.251 141.367 168.729 142.505C168.786 142.649 168.85 142.791 168.904 142.935C168.961 143.078 169.019 143.221 169.069 143.365L169.149 143.58L169.223 143.798L169.302 144.023L169.385 144.251C169.493 144.542 169.593 144.828 169.671 145.106C169.71 145.246 169.741 145.386 169.76 145.515C169.772 145.581 169.776 145.644 169.779 145.701C169.782 145.757 169.78 145.811 169.773 145.851C169.77 145.891 169.756 145.915 169.758 145.907C169.755 145.908 169.751 145.909 169.744 145.91C169.719 145.907 169.678 145.9 169.633 145.883C169.538 145.85 169.419 145.785 169.307 145.712C169.194 145.636 169.079 145.549 168.963 145.459C168.847 145.365 168.733 145.268 168.608 145.165L168.249 144.864C168.018 144.666 167.789 144.46 167.57 144.249C166.687 143.399 165.891 142.441 165.117 141.447C164.73 140.948 164.345 140.442 163.96 139.932C163.574 139.422 163.571 139.423 163.373 139.169C163.175 138.915 162.977 138.661 162.776 138.408C162.369 137.898 161.948 137.391 161.479 136.91C161.009 136.43 160.494 135.975 159.905 135.601C159.608 135.414 159.294 135.248 158.964 135.114C158.633 134.979 158.284 134.877 157.924 134.819C157.833 134.806 157.745 134.79 157.654 134.781L157.516 134.769C157.47 134.767 157.426 134.76 157.383 134.76C157.214 134.751 157.041 134.742 156.869 134.737C156.525 134.726 156.176 134.727 155.826 134.745C155.455 134.764 155.085 134.808 154.723 134.879C154.361 134.949 154.006 135.055 153.666 135.193C153.584 135.229 153.497 135.265 153.415 135.305C153.334 135.348 153.252 135.391 153.173 135.429C153.008 135.523 152.855 135.628 152.711 135.739C152.427 135.967 152.176 136.225 151.966 136.511C151.757 136.798 151.587 137.113 151.476 137.453C151.421 137.624 151.381 137.802 151.367 137.986C151.36 138.151 151.368 138.339 151.4 138.518C151.432 138.702 151.492 138.88 151.571 139.045C151.592 139.084 151.613 139.126 151.635 139.165L151.708 139.281C151.76 139.353 151.812 139.426 151.874 139.494C151.936 139.561 152.001 139.625 152.071 139.684C152.142 139.743 152.212 139.795 152.285 139.842C152.43 139.938 152.582 140.011 152.732 140.074C152.84 140.123 152.947 140.164 153.057 140.202C153.111 140.221 153.164 140.24 153.221 140.262C153.274 140.282 153.328 140.301 153.384 140.319C153.494 140.353 153.603 140.388 153.716 140.421L154.053 140.512C154.503 140.622 154.955 140.699 155.405 140.741C155.851 140.784 156.292 140.799 156.707 140.787C157.125 140.774 157.519 140.744 157.881 140.694C158.453 140.622 158.997 140.512 159.52 140.388C160.04 140.261 160.539 140.12 161.022 139.967C161.984 139.663 162.876 139.321 163.743 138.983C162.77 139.35 161.924 139.666 161.029 139.948C160.584 140.091 160.122 140.222 159.63 140.344C159.138 140.466 158.609 140.577 158.025 140.662C157.928 140.679 157.847 140.686 157.781 140.694C157.715 140.702 157.662 140.708 157.627 140.711C157.553 140.716 157.532 140.717 157.552 140.709C157.573 140.706 157.638 140.691 157.735 140.674C157.832 140.657 157.838 140.656 157.901 140.645C157.963 140.634 158.032 140.621 158.105 140.609C158.402 140.556 158.772 140.473 159.131 140.385C159.22 140.363 159.309 140.34 159.397 140.317C159.486 140.295 159.567 140.27 159.649 140.248C159.812 140.205 159.958 140.162 160.084 140.125C160.293 140.06 160.571 140 160.848 139.93C161.125 139.864 161.397 139.791 161.605 139.715C162.515 139.416 163.325 139.081 164.275 138.704C164.68 138.536 164.656 138.619 164.858 138.534C166.157 138.034 167.136 137.581 167.975 137.287C168.613 137.061 169.187 136.86 169.748 136.665C170.1 136.539 170.452 136.413 170.824 136.276C171.054 136.186 171.291 136.094 171.531 136.002C171.333 136.051 171.254 136.051 171.183 136.052C171.255 136.054 171.333 136.051 171.531 136.002C172.386 135.673 173.308 135.322 174.249 134.979C175.19 134.635 176.153 134.294 177.075 133.961C177.068 133.962 177.058 133.964 177.047 133.966C175.963 134.346 174.898 134.697 173.76 135.054C174.252 134.896 174.199 134.937 173.642 135.135C173.496 135.175 173.35 135.215 173.207 135.255C173.685 135.074 174.167 134.897 174.644 134.731C175.121 134.565 175.593 134.414 176.061 134.278C176.061 134.278 176.472 134.121 176.673 134.046C176.984 133.949 176.974 133.975 177.044 133.97C177.256 133.897 177.471 133.82 177.686 133.747C177.455 133.809 176.977 133.95 176.561 134.077C176.141 134.204 175.783 134.317 175.783 134.317L175.779 134.314Z" fill="white"/>
<path d="M164.666 138.332C164.812 138.274 164.993 138.207 165.183 138.134C164.487 138.388 163.787 138.647 163.087 138.902C163.468 138.799 164.065 138.563 164.666 138.332Z" fill="white"/>
</g>
</g>
<rect x="22.6579" y="2" width="323.695" height="184.77" transform="rotate(7.04378 22.6579 2)" fill="black"/>
<path d="M22.6911 2L163.237 142.545L344.07 42.0566" stroke="white" stroke-width="3"/>
<circle cx="163.922" cy="135.359" r="30.4394" transform="rotate(7.73503 163.922 135.359)" fill="#FF3333"/>
<g clip-path="url(#clip1_51_989)">
<g opacity="0.9">
<path d="M184.74 133.512C184.537 133.554 184.33 133.598 184.122 133.638C183.916 133.685 183.713 133.732 183.506 133.779C183.713 133.735 183.921 133.695 184.133 133.658C184.404 133.61 184.542 133.564 184.74 133.508L184.74 133.512Z" fill="white"/>
<path d="M182.373 134.067C182.298 134.088 182.226 134.107 182.157 134.123C182.092 134.142 182.032 134.163 181.974 134.18C182.106 134.139 182.239 134.102 182.372 134.064L182.373 134.067Z" fill="white"/>
<path d="M180.273 134.702C180.643 134.587 180.999 134.477 181.342 134.374C181.189 134.419 181.026 134.466 180.849 134.518C180.672 134.571 180.483 134.636 180.276 134.701L180.273 134.702Z" fill="white"/>
<path d="M181.952 134.22C181.821 134.247 181.754 134.255 181.964 134.186C181.964 134.186 181.971 134.185 181.975 134.184C181.764 134.25 181.556 134.308 181.339 134.375C181.567 134.31 181.774 134.262 181.952 134.217L181.952 134.22Z" fill="white"/>
<path d="M181.952 134.22C182.015 134.209 182.097 134.188 182.173 134.171C182.249 134.158 182.318 134.142 182.353 134.136C182.235 134.156 182.1 134.184 181.952 134.22Z" fill="white"/>
<path d="M181.489 134.599C181.28 134.668 181.313 134.591 180.897 134.728C179.922 135.046 179.103 135.351 178.194 135.658C177.784 135.812 177.11 135.963 176.701 136.121C176.217 136.299 175.36 136.618 174.811 136.832C174.262 137.047 174.014 137.159 174.745 136.901C175.295 136.712 175.797 136.537 176.269 136.372C176.741 136.207 177.189 136.049 177.628 135.897C178.504 135.589 179.353 135.293 180.346 134.975C181.147 134.709 181.941 134.459 182.742 134.232C183.543 134.005 184.358 133.801 185.206 133.634C185.324 133.613 185.442 133.593 185.559 133.568C185.674 133.548 185.789 133.532 185.904 133.515C186.018 133.495 186.13 133.479 186.245 133.462C186.357 133.446 186.469 133.433 186.585 133.42C185.996 133.488 185.393 133.58 184.728 133.704C183.85 133.862 182.825 134.199 181.493 134.602L181.489 134.599Z" fill="white"/>
<path d="M193.91 133.789C193.88 133.737 193.826 133.679 193.761 133.633C193.729 133.61 193.692 133.588 193.657 133.569C193.621 133.55 193.59 133.534 193.556 133.522C193.49 133.494 193.433 133.476 193.388 133.462C193.346 133.448 193.32 133.442 193.32 133.442C193.089 133.354 192.843 133.297 192.599 133.25C192.351 133.204 192.099 133.174 191.848 133.15C191.342 133.103 190.825 133.09 190.313 133.09C190.462 133.103 190.615 133.12 190.768 133.136C191.063 133.145 191.225 133.148 191.249 133.144C191.273 133.14 191.163 133.123 190.902 133.105C191.497 133.151 192.079 133.206 192.648 133.306C192.933 133.36 193.212 133.418 193.482 133.528C193.547 133.556 193.614 133.587 193.674 133.623C193.734 133.663 193.792 133.706 193.838 133.763C193.88 133.82 193.907 133.894 193.902 133.966C193.893 134.039 193.862 134.105 193.823 134.166C193.838 134.153 193.847 134.144 193.86 134.134C193.873 134.125 193.885 134.112 193.898 134.088C193.904 134.077 193.916 134.064 193.92 134.049C193.928 134.033 193.935 134.014 193.942 133.988C193.951 133.939 193.953 133.871 193.914 133.789L193.91 133.789Z" fill="white"/>
<path d="M193.306 134.607C193.403 134.547 193.495 134.481 193.583 134.409C193.67 134.336 193.753 134.257 193.819 134.167C193.812 134.168 193.807 134.176 193.801 134.184C193.734 134.274 193.648 134.354 193.561 134.427C193.473 134.496 193.381 134.562 193.284 134.622C193.291 134.621 193.297 134.616 193.307 134.611L193.306 134.607Z" fill="white"/>
<path d="M175.884 136.239C173.122 137.176 170.546 138.115 168.032 139.041C167.843 139.124 167.715 139.189 167.452 139.279C167.251 139.339 167.052 139.406 166.852 139.474C166.486 139.61 166.12 139.742 165.753 139.878C165.626 139.925 165.499 139.976 165.368 140.028C165.368 140.028 165.361 140.029 165.358 140.03C165.154 140.112 165.22 140.101 165.35 140.063C165.495 140.016 165.628 139.979 165.74 139.945C165.669 139.964 165.476 140.027 165.35 140.063C165.173 140.12 164.978 140.186 164.752 140.265C164.42 140.392 164.071 140.528 163.708 140.656C164.106 140.5 164.452 140.372 164.752 140.265C164.963 140.185 165.164 140.107 165.368 140.028C165.425 140.004 165.485 139.979 165.546 139.957C165.125 140.11 164.709 140.266 164.292 140.418C163.875 140.573 163.459 140.725 163.042 140.877C162.85 140.947 162.668 141.014 162.518 141.073C162.216 141.187 161.913 141.294 161.639 141.385C161.5 141.431 161.368 141.472 161.249 141.507C161.126 141.543 161.016 141.57 160.92 141.59C160.77 141.635 160.617 141.679 160.464 141.724C160.492 141.719 160.526 141.713 160.554 141.708C160.486 141.728 160.427 141.738 160.379 141.75C160.059 141.842 159.733 141.921 159.406 141.996L159.161 142.05L159.036 142.072C159.037 142.075 158.913 142.101 158.913 142.101L158.666 142.144C158.667 142.148 158.416 142.188 158.416 142.188C157.991 142.274 157.545 142.341 157.098 142.384C157.098 142.384 157.023 142.383 156.926 142.382C156.879 142.38 156.826 142.382 156.779 142.379C156.728 142.377 156.681 142.375 156.646 142.374C156.6 142.382 156.551 142.384 156.494 142.39C156.467 142.395 156.438 142.393 156.41 142.398C156.382 142.399 156.35 142.401 156.317 142.4C156.193 142.404 156.05 142.407 155.895 142.402C155.94 142.409 155.987 142.411 156.031 142.418C156.074 142.421 156.118 142.424 156.161 142.427C156.248 142.433 156.335 142.439 156.418 142.446C156.501 142.45 156.584 142.453 156.663 142.453C156.702 142.454 156.742 142.457 156.782 142.458C156.821 142.458 156.861 142.458 156.9 142.458C157.127 142.465 157.381 142.427 157.642 142.385C157.774 142.362 157.907 142.342 158.039 142.322C158.171 142.299 158.305 142.29 158.44 142.281C158.305 142.29 158.172 142.303 158.039 142.322C157.907 142.346 157.774 142.362 157.642 142.385C157.382 142.431 157.13 142.464 156.9 142.458C156.861 142.458 156.821 142.458 156.782 142.458C156.742 142.457 156.702 142.454 156.663 142.453C156.584 142.449 156.501 142.446 156.418 142.446C156.335 142.439 156.248 142.433 156.161 142.427C156.118 142.424 156.074 142.421 156.031 142.418C155.987 142.415 155.943 142.408 155.895 142.402C155.816 142.398 155.734 142.398 155.65 142.392C155.567 142.385 155.48 142.379 155.392 142.369C155.305 142.363 155.214 142.35 155.125 142.337C155.081 142.331 155.034 142.325 154.99 142.318L154.92 142.309L154.853 142.296C154.765 142.279 154.672 142.26 154.583 142.243C154.493 142.223 154.403 142.199 154.317 142.179C154.273 142.169 154.232 142.158 154.186 142.144C154.144 142.13 154.103 142.12 154.061 142.106C153.978 142.081 153.899 142.055 153.819 142.03C154.216 142.129 154.587 142.203 154.931 142.268C155.015 142.281 155.104 142.295 155.185 142.309C155.225 142.316 155.266 142.323 155.31 142.33C155.35 142.333 155.391 142.341 155.431 142.344C155.511 142.355 155.592 142.366 155.669 142.378C155.746 142.386 155.822 142.394 155.899 142.402C156.051 142.411 156.193 142.404 156.321 142.399C156.353 142.397 156.384 142.395 156.413 142.397C156.441 142.392 156.47 142.394 156.498 142.389C156.554 142.383 156.603 142.378 156.649 142.374C156.685 142.374 156.732 142.377 156.782 142.379C156.833 142.381 156.883 142.382 156.93 142.381C157.023 142.383 157.102 142.383 157.102 142.383C157.549 142.344 157.995 142.273 158.42 142.187C157.774 142.297 157.115 142.356 156.45 142.362C156.117 142.36 155.786 142.35 155.454 142.315C155.287 142.302 155.122 142.277 154.957 142.252C154.872 142.239 154.791 142.224 154.709 142.21L154.584 142.189C154.543 142.182 154.502 142.171 154.462 142.164C153.933 142.049 153.414 141.886 152.924 141.679C152.683 141.571 152.456 141.439 152.273 141.257C152.229 141.211 152.185 141.165 152.148 141.114C152.11 141.064 152.073 141.013 152.041 140.954C152.006 140.899 151.982 140.843 151.951 140.787C151.926 140.727 151.902 140.671 151.884 140.609C151.809 140.368 151.799 140.109 151.841 139.858C151.862 139.733 151.898 139.609 151.937 139.487C151.981 139.368 152.035 139.248 152.093 139.134C152.155 139.019 152.222 138.911 152.297 138.805C152.371 138.699 152.453 138.598 152.54 138.501C152.713 138.305 152.905 138.132 153.114 137.981C153.219 137.905 153.328 137.836 153.439 137.773C153.555 137.717 153.669 137.654 153.789 137.605C153.849 137.58 153.908 137.551 153.969 137.533C154.03 137.512 154.09 137.487 154.151 137.466L154.337 137.408C154.399 137.39 154.464 137.375 154.525 137.357C154.779 137.294 155.035 137.246 155.295 137.215C155.554 137.183 155.815 137.162 156.079 137.155C156.342 137.145 156.603 137.146 156.866 137.157C156.999 137.158 157.129 137.168 157.259 137.173L157.458 137.185L157.65 137.201C158.165 137.257 158.664 137.41 159.13 137.639C159.596 137.868 160.031 138.164 160.431 138.505C160.831 138.847 161.205 139.221 161.557 139.617C161.909 140.013 162.247 140.43 162.576 140.855C162.905 141.281 163.234 141.71 163.561 142.142C164.214 143.008 164.867 143.892 165.573 144.752C165.663 144.858 165.75 144.968 165.84 145.074C165.931 145.179 166.021 145.285 166.112 145.395C166.205 145.5 166.299 145.605 166.393 145.71C166.486 145.815 166.583 145.917 166.68 146.021C167.067 146.433 167.473 146.83 167.905 147.209C168.141 147.411 168.376 147.609 168.608 147.808C168.729 147.908 168.85 148.005 168.981 148.097C169.111 148.188 169.245 148.276 169.397 148.346C169.471 148.383 169.551 148.412 169.638 148.436C169.724 148.457 169.819 148.472 169.921 148.461C170.027 148.45 170.127 148.411 170.209 148.35C170.292 148.289 170.362 148.198 170.399 148.105C170.436 148.013 170.457 147.923 170.463 147.836C170.469 147.749 170.468 147.664 170.464 147.582C170.454 147.419 170.426 147.263 170.388 147.109C170.317 146.803 170.223 146.511 170.122 146.225C170.072 146.083 170.022 145.942 169.969 145.801C169.919 145.659 169.872 145.517 169.823 145.376C169.622 144.806 169.395 144.248 169.156 143.7C168.677 142.603 168.151 141.547 167.663 140.483C167.604 140.351 167.542 140.218 167.483 140.086L167.394 139.887L167.309 139.687C167.25 139.554 167.194 139.421 167.138 139.284C167.082 139.15 167.026 139.017 166.97 138.88C166.75 138.343 166.534 137.804 166.328 137.264C166.096 136.654 165.873 136.042 165.663 135.434C165.452 134.824 165.255 134.214 165.065 133.603C164.686 132.382 164.353 131.159 164.052 129.934C163.897 129.321 163.743 128.707 163.589 128.097C163.435 127.487 163.288 126.876 163.153 126.266C163.012 125.65 162.866 125.021 162.623 124.413C162.56 124.259 162.494 124.109 162.418 123.958C162.4 123.922 162.379 123.883 162.359 123.847L162.327 123.792L162.277 123.711L162.228 123.63L162.174 123.55L162.121 123.47L162.064 123.394L162.008 123.318L161.949 123.25C161.931 123.228 161.909 123.203 161.892 123.185L161.831 123.124C161.81 123.106 161.791 123.081 161.771 123.066L161.711 123.012C161.669 122.977 161.631 122.944 161.59 122.912C161.507 122.848 161.424 122.784 161.337 122.717L161.201 122.615C161.188 122.603 161.181 122.604 161.174 122.602L161.151 122.595L161.11 122.567L161.055 123.149C161.047 123.244 161.039 123.342 161.031 123.44C161.023 123.538 161.013 123.64 161.008 123.734L160.989 124.016L160.984 124.146L160.978 124.236C160.971 124.359 160.967 124.478 160.963 124.6C160.945 125.087 160.941 125.571 160.929 126.052C160.924 126.293 160.917 126.534 160.909 126.775C160.905 126.894 160.901 127.016 160.894 127.136C160.886 127.255 160.883 127.378 160.875 127.497C160.849 127.981 160.821 128.469 160.792 128.958C160.677 130.907 160.537 132.882 160.377 134.9C160.305 135.793 160.228 136.88 160.149 138.061C160.11 138.651 160.067 139.264 160.023 139.891C159.983 140.513 159.936 141.144 159.883 141.78C159.78 143.043 159.666 144.309 159.581 145.476C159.537 146.06 159.5 146.622 159.473 147.142C159.468 147.271 159.462 147.401 159.455 147.528C159.449 147.676 159.442 147.816 159.438 147.957C159.426 148.195 159.423 148.421 159.415 148.641C159.411 148.863 159.402 149.076 159.4 149.288C159.399 149.51 159.397 149.721 159.395 149.89C159.45 149.859 159.498 149.829 159.551 149.801C159.564 149.796 159.578 149.79 159.587 149.781C159.6 149.775 159.606 149.77 159.629 149.756C159.667 149.731 159.703 149.71 159.742 149.689C159.885 149.603 159.994 149.534 160.097 149.466C160.199 149.398 160.289 149.317 160.379 149.219C160.466 149.125 160.55 149.014 160.625 148.89C160.7 148.766 160.766 148.632 160.826 148.507C160.842 148.476 160.855 148.448 160.871 148.417C160.879 148.401 160.887 148.385 160.892 148.374L160.903 148.354L160.914 148.334C160.933 148.299 160.952 148.263 160.97 148.228C160.995 148.184 161.017 148.144 161.037 148.119C161.049 148.103 161.058 148.094 161.066 148.082C161.076 148.073 161.084 148.061 161.09 148.053C161.12 148.019 161.152 147.999 161.181 147.979C161.198 147.976 161.21 147.964 161.227 147.957C161.241 147.955 161.257 147.945 161.267 147.939C161.317 147.92 161.335 147.899 161.32 147.876C161.305 147.854 161.265 147.829 161.205 147.814C161.146 147.8 161.067 147.799 160.985 147.824C160.907 147.849 160.835 147.904 160.779 147.954C160.723 148.003 160.689 148.052 160.671 148.073C160.584 148.188 160.514 148.301 160.45 148.401C160.385 148.502 160.322 148.592 160.25 148.669C160.181 148.746 160.102 148.806 160.017 148.85C159.997 148.86 159.974 148.872 159.954 148.879L159.937 148.882L159.93 148.887L159.927 148.887C159.927 148.887 159.927 148.887 159.926 148.884L159.929 148.837C159.932 148.775 159.939 148.713 159.943 148.652C159.959 148.441 159.976 148.227 159.992 148.013C159.998 147.966 159.999 147.915 160.005 147.868C160.011 147.799 160.016 147.726 160.019 147.658C160.029 147.513 160.038 147.364 160.052 147.215C160.093 146.614 160.144 145.971 160.204 145.256C160.264 144.537 160.343 143.746 160.431 142.843C160.477 142.391 160.522 141.914 160.572 141.405C160.622 140.895 160.673 140.352 160.722 139.775C160.638 140.76 160.589 141.072 160.588 140.922C160.583 140.776 160.613 140.17 160.665 139.327C160.766 137.641 160.959 134.995 161.154 133.135C161.306 131.72 161.429 130.141 161.528 128.463C161.541 128.253 161.551 128.044 161.563 127.831C161.576 127.617 161.589 127.404 161.596 127.184C161.616 126.748 161.621 126.307 161.629 125.865C161.637 125.423 161.642 124.982 161.654 124.54C161.661 124.374 161.667 124.208 161.674 124.042L161.673 124.036C161.673 124.039 161.681 124.041 161.681 124.045C161.686 124.051 161.694 124.053 161.698 124.06C161.703 124.066 161.711 124.072 161.716 124.078C161.721 124.084 161.725 124.091 161.736 124.11L161.767 124.166C161.778 124.185 161.788 124.205 161.799 124.228C161.821 124.271 161.843 124.31 161.861 124.353C161.904 124.439 161.941 124.525 161.978 124.615C162.053 124.795 162.117 124.977 162.179 125.167C162.3 125.547 162.397 125.937 162.489 126.337C162.581 126.739 162.677 127.144 162.777 127.549C162.976 128.355 163.184 129.153 163.38 129.938C163.429 130.137 163.477 130.332 163.526 130.528C163.575 130.727 163.624 130.922 163.676 131.117C163.777 131.507 163.881 131.893 163.988 132.279C164.433 133.897 165 135.59 165.722 137.461C165.954 138.068 166.192 138.67 166.44 139.263C166.502 139.413 166.564 139.56 166.626 139.71C166.691 139.86 166.753 140.006 166.819 140.156C166.949 140.451 167.083 140.743 167.22 141.034C167.76 142.192 168.327 143.319 168.807 144.463C168.864 144.606 168.929 144.749 168.983 144.893C169.04 145.037 169.098 145.181 169.148 145.326L169.229 145.541L169.303 145.76L169.382 145.986L169.466 146.215C169.574 146.507 169.675 146.794 169.752 147.074C169.791 147.214 169.823 147.355 169.842 147.484C169.854 147.55 169.858 147.613 169.861 147.67C169.864 147.727 169.863 147.781 169.855 147.821C169.852 147.861 169.838 147.885 169.84 147.878C169.837 147.878 169.833 147.879 169.826 147.88C169.801 147.878 169.76 147.87 169.714 147.853C169.619 147.82 169.5 147.755 169.387 147.682C169.273 147.605 169.158 147.518 169.042 147.428C168.925 147.334 168.811 147.236 168.686 147.132L168.325 146.831C168.093 146.632 167.864 146.425 167.644 146.213C166.757 145.36 165.958 144.398 165.181 143.4C164.793 142.899 164.406 142.391 164.019 141.879C163.632 141.368 163.629 141.368 163.43 141.113C163.231 140.858 163.033 140.603 162.831 140.349C162.422 139.837 162 139.328 161.529 138.846C161.057 138.363 160.54 137.906 159.948 137.531C159.651 137.343 159.335 137.177 159.004 137.042C158.672 136.907 158.321 136.804 157.96 136.746C157.869 136.733 157.78 136.717 157.689 136.708L157.551 136.696C157.504 136.694 157.46 136.687 157.417 136.688C157.247 136.678 157.074 136.669 156.901 136.664C156.556 136.653 156.205 136.654 155.854 136.672C155.482 136.691 155.11 136.735 154.747 136.806C154.384 136.877 154.027 136.983 153.686 137.122C153.603 137.158 153.516 137.194 153.434 137.234C153.352 137.277 153.27 137.32 153.191 137.359C153.025 137.453 152.872 137.558 152.727 137.67C152.441 137.899 152.19 138.158 151.979 138.445C151.769 138.733 151.599 139.049 151.487 139.391C151.431 139.562 151.391 139.74 151.377 139.925C151.371 140.091 151.379 140.28 151.41 140.46C151.443 140.644 151.503 140.823 151.582 140.988C151.603 141.027 151.625 141.07 151.646 141.109L151.72 141.225C151.772 141.298 151.825 141.371 151.887 141.439C151.949 141.507 152.014 141.571 152.085 141.63C152.156 141.689 152.226 141.741 152.299 141.789C152.445 141.885 152.597 141.959 152.748 142.022C152.856 142.07 152.964 142.112 153.074 142.15C153.128 142.169 153.181 142.189 153.239 142.211C153.292 142.23 153.346 142.249 153.403 142.268C153.513 142.302 153.622 142.337 153.736 142.37L154.074 142.461C154.526 142.571 154.98 142.649 155.431 142.691C155.879 142.734 156.322 142.75 156.738 142.737C157.158 142.724 157.553 142.694 157.917 142.644C158.491 142.572 159.037 142.462 159.563 142.337C160.084 142.21 160.585 142.068 161.07 141.915C162.036 141.609 162.931 141.265 163.802 140.926C162.825 141.295 161.976 141.612 161.077 141.896C160.63 142.039 160.166 142.17 159.673 142.293C159.179 142.415 158.648 142.527 158.061 142.612C157.964 142.629 157.883 142.636 157.817 142.644C157.75 142.652 157.697 142.658 157.662 142.661C157.588 142.667 157.567 142.667 157.587 142.66C157.608 142.656 157.673 142.641 157.77 142.624C157.867 142.607 157.874 142.605 157.937 142.594C157.999 142.583 158.069 142.571 158.141 142.558C158.44 142.506 158.812 142.423 159.172 142.334C159.261 142.312 159.35 142.289 159.439 142.266C159.528 142.243 159.61 142.218 159.692 142.196C159.856 142.153 160.002 142.11 160.128 142.073C160.338 142.008 160.618 141.948 160.895 141.877C161.173 141.811 161.447 141.738 161.655 141.662C162.568 141.361 163.382 141.025 164.336 140.646C164.743 140.478 164.718 140.561 164.921 140.475C166.225 139.974 167.207 139.519 168.05 139.224C168.69 138.997 169.267 138.795 169.83 138.599C170.183 138.473 170.537 138.346 170.91 138.209C171.141 138.118 171.379 138.026 171.62 137.934C171.421 137.983 171.342 137.983 171.271 137.984C171.343 137.986 171.421 137.983 171.62 137.934C172.478 137.604 173.404 137.252 174.348 136.906C175.293 136.561 176.26 136.22 177.185 135.885C177.178 135.886 177.168 135.888 177.158 135.89C176.069 136.271 175 136.624 173.857 136.982C174.352 136.824 174.298 136.865 173.739 137.064C173.592 137.104 173.446 137.144 173.302 137.183C173.782 137.002 174.266 136.824 174.745 136.658C175.224 136.491 175.698 136.34 176.168 136.204C176.168 136.204 176.58 136.045 176.782 135.97C177.094 135.873 177.084 135.899 177.155 135.894C177.367 135.821 177.583 135.744 177.799 135.67C177.566 135.732 177.087 135.874 176.669 136.001C176.248 136.129 175.888 136.242 175.888 136.242L175.884 136.239Z" fill="white"/>
<path d="M164.728 140.273C164.875 140.215 165.057 140.147 165.248 140.074C164.548 140.329 163.846 140.589 163.143 140.845C163.526 140.742 164.125 140.504 164.728 140.273Z" fill="white"/>
</g>
</g>
<defs>
<clipPath id="clip0_51_989">
<rect width="42.8572" height="26.9103" fill="white" transform="translate(148.649 122.877) rotate(-9.9723)"/>
</clipPath>
<clipPath id="clip1_51_989">
<rect width="43.0237" height="27.0149" fill="white" transform="translate(148.649 124.758) rotate(-9.9723)"/>
</clipPath>
</defs>
</svg>
