<?xml version="1.0" encoding="UTF-8"?>
<svg id="Layer_1" data-name="Layer 1" xmlns="http://www.w3.org/2000/svg" viewBox="0 0 298 95">
  <defs>
    <style>
      .cls-1 {
        fill: #fff;
      }
    </style>
  </defs>
  <path class="cls-1" d="M33.92,24.73l-12.23,34.68h25l-12.77-34.68Z"/>
  <path class="cls-1" d="M46.97,61.21h-25.98c-2.17,6.5-6.86,19.06-7.12,21.23-.36,2.98-.53,6.57,1.83,8.7,2,2,6.46,2.58,8.62,2.58v1.28h25.22v-1.28h8.96l-11.52-32.51Z"/>
  <path class="cls-1" d="M251.72,44.82V3.1c4.75-.15,10.62-.03,13.12.89,3.38.88,6.41,3.15,7.54,4.56,2.04,2.37,3.55,5.7,4.13,9.37.59,3.84.47,6.5.36,7.99-.32,4.44-1.05,6.49-1.71,8.19s-1.66,3.72-4.15,6.22c-1.48,1.55-4.72,3.37-8.77,4.14-2.84.54-7.8.35-10.51.37Z"/>
  <path class="cls-1" d="M251.51,93.41l.21-47.3c4.06.05,9.66-.26,13.25.88,3.84,1.1,6.4,2.53,8.9,5.03,2.44,2.4,4.12,5.75,4.95,8.86,1.13,3.98,1.18,7.35,1.18,9.85,0,4-.54,9.02-2.54,13.19-1.38,3.31-4.12,5.72-7.51,7.34-2.79,1.33-7.94,2.16-9.94,2.16h-8.5Z"/>
  <path class="cls-1" d="M114.42,79.93V5.14s31.35,89.86,31.35,89.86h-18.43v-1.28l-3.28-.07c-2.7-.51-4.44-.59-6.74-2.49-2.25-2.05-2.91-5.73-2.91-11.23Z"/>
  <path class="cls-1" d="M166.64,95h-19.84L175.73,5.53v88.19h-9.09v1.28Z"/>
  <path class="cls-1" d="M175.47,1.82h-44.29l22.91,66.55L175.47,1.82Z"/>
</svg>