<?xml version="1.0" encoding="UTF-8"?>
<svg id="Layer_1" xmlns="http://www.w3.org/2000/svg" version="1.1" viewBox="0 0 266 93">
  <!-- Generator: Adobe Illustrator 29.5.0, SVG Export Plug-In . SVG Version: 2.1.0 Build 137)  -->
  <defs>
    <style>
      .st0 {
        fill: #fff;
      }
    </style>
  </defs>
  <path class="st0" d="M20.2,22L7.7,57.5h25l-12.5-35.5Z"/>
  <path class="st0" d="M33.2,59H7.2c-2.2,6.5-6.6,19.9-7,21.5-.5,2,0,6,2,8,2,2,6.3,2.5,8.5,2.5v1.5h25v-1.3h9l-11.5-32.2Z"/>
  <path class="st0" d="M237.5,43V1c3.5,0,11.1,0,13.5,1,2.5,1,5.9,3.6,7,5,2,2.5,4,6,4.5,9,.7,4,.5,6.5.5,8,0,4-1.1,6.3-2,8s-2,3.5-4,6c-1.7,2.2-6.5,4-9,4.5-2,.4-7.8.5-10.5.5Z"/>
  <path class="st0" d="M237.5,91.5v-47c3.5,0,10.5-.5,13.5.5,3.7,1.2,6.5,2.5,9,5,2.4,2.4,4.2,5.9,5,9,1,4,1,6.5,1,9,0,4-.7,8.6-2,12-1.5,4-4.5,7-7,9s-9,2.5-11,2.5h-8.5Z"/>
  <path class="st0" d="M100.5,78V3l31,90h-18v-1.5h-3.5c-2.5,0-4.4-.4-6.5-2.5-2-2-3-5.5-3-11Z"/>
  <path class="st0" d="M152.5,93h-19.5L161.5,4v87.5h-9v1.5Z"/>
  <path class="st0" d="M161.5,0h-44l22.5,66.5L161.5,0Z"/>
</svg>