<svg width="318" height="42" viewBox="0 0 318 42" fill="none" xmlns="http://www.w3.org/2000/svg">
<rect width="318" height="33" fill="white"/>
<path d="M20.4777 37V21.88H22.7977V30.38L22.2977 31.88L22.6777 33.74V37H20.4777ZM26.1377 37.18C25.471 37.18 24.871 37.0533 24.3377 36.8C23.8043 36.5467 23.3577 36.1933 22.9977 35.74C22.6377 35.2733 22.3577 34.72 22.1577 34.08C21.971 33.4267 21.8777 32.7133 21.8777 31.94C21.8777 30.9 22.0443 29.9933 22.3777 29.22C22.711 28.4333 23.1977 27.8267 23.8377 27.4C24.491 26.96 25.2643 26.74 26.1577 26.74C26.8243 26.74 27.431 26.8667 27.9777 27.12C28.5377 27.36 29.0177 27.7133 29.4177 28.18C29.831 28.6333 30.1443 29.18 30.3577 29.82C30.571 30.46 30.6777 31.1667 30.6777 31.94C30.6777 32.9933 30.4843 33.9133 30.0977 34.7C29.7243 35.4733 29.1977 36.08 28.5177 36.52C27.8377 36.96 27.0443 37.18 26.1377 37.18ZM25.5577 35.32C26.1177 35.32 26.6043 35.1867 27.0177 34.92C27.431 34.64 27.751 34.2467 27.9777 33.74C28.2043 33.2333 28.3177 32.6333 28.3177 31.94C28.3177 31.2467 28.2043 30.6533 27.9777 30.16C27.751 29.6533 27.431 29.2667 27.0177 29C26.6043 28.72 26.1177 28.58 25.5577 28.58C25.011 28.58 24.531 28.72 24.1177 29C23.7043 29.2667 23.3777 29.6533 23.1377 30.16C22.911 30.6533 22.7977 31.2467 22.7977 31.94C22.7977 32.46 22.8643 32.9333 22.9977 33.36C23.131 33.7733 23.3177 34.1267 23.5577 34.42C23.811 34.7133 24.1043 34.94 24.4377 35.1C24.7843 35.2467 25.1577 35.32 25.5577 35.32ZM35.88 37V26.9H38.08V31.78H37.64C37.68 30.7267 37.8467 29.8333 38.14 29.1C38.4467 28.3533 38.8733 27.7867 39.42 27.4C39.98 27.0133 40.6533 26.82 41.44 26.82C41.5467 26.82 41.66 26.8267 41.78 26.84C41.9 26.84 42.0067 26.8533 42.1 26.88V29.12C41.4867 29.12 40.9333 29.1667 40.44 29.26C39.96 29.3533 39.5533 29.5267 39.22 29.78C38.8867 30.02 38.6333 30.3667 38.46 30.82C38.2867 31.26 38.2 31.84 38.2 32.56V37H35.88ZM46.8878 37V26.9H49.2078V37H46.8878ZM46.6878 24.9V22.4H49.4278V24.9H46.6878ZM59.7255 41.48C58.6721 41.48 57.8055 41.3467 57.1255 41.08C56.4455 40.8133 55.9255 40.4333 55.5655 39.94C55.2188 39.46 55.0255 38.8867 54.9855 38.22H57.1655C57.2188 38.5 57.3321 38.76 57.5055 39C57.6788 39.24 57.9388 39.4267 58.2855 39.56C58.6321 39.6933 59.1055 39.76 59.7055 39.76C60.2788 39.76 60.7588 39.6667 61.1455 39.48C61.5321 39.3067 61.8188 39.0333 62.0055 38.66C62.2055 38.3 62.3055 37.8467 62.3055 37.3V33.76L62.7055 31.9L62.4255 30.34V26.9H64.6055V37.16C64.6055 38.0933 64.4188 38.88 64.0455 39.52C63.6721 40.1733 63.1188 40.66 62.3855 40.98C61.6655 41.3133 60.7788 41.48 59.7255 41.48ZM59.0055 37.14C58.3255 37.14 57.7055 37.02 57.1455 36.78C56.5855 36.5267 56.0988 36.1733 55.6855 35.72C55.2721 35.2533 54.9521 34.7 54.7255 34.06C54.5121 33.42 54.4055 32.7133 54.4055 31.94C54.4055 30.9 54.5988 29.9933 54.9855 29.22C55.3721 28.4333 55.9055 27.8267 56.5855 27.4C57.2788 26.96 58.0855 26.74 59.0055 26.74C59.8855 26.74 60.6321 26.96 61.2455 27.4C61.8721 27.8267 62.3521 28.4333 62.6855 29.22C63.0188 29.9933 63.1855 30.9 63.1855 31.94C63.1855 32.9667 63.0188 33.8733 62.6855 34.66C62.3521 35.4333 61.8788 36.04 61.2655 36.48C60.6521 36.92 59.8988 37.14 59.0055 37.14ZM59.5255 35.32C60.0721 35.32 60.5521 35.1867 60.9655 34.92C61.3921 34.64 61.7188 34.2467 61.9455 33.74C62.1855 33.2333 62.3055 32.6333 62.3055 31.94C62.3055 31.42 62.2388 30.9533 62.1055 30.54C61.9721 30.1267 61.7788 29.7733 61.5255 29.48C61.2855 29.1867 60.9921 28.9667 60.6455 28.82C60.3121 28.66 59.9388 28.58 59.5255 28.58C58.9788 28.58 58.4988 28.72 58.0855 29C57.6721 29.2667 57.3455 29.6533 57.1055 30.16C56.8788 30.6533 56.7655 31.2467 56.7655 31.94C56.7655 32.6333 56.8788 33.2333 57.1055 33.74C57.3455 34.2467 57.6721 34.64 58.0855 34.92C58.4988 35.1867 58.9788 35.32 59.5255 35.32ZM70.3878 37V21.88H72.7078V31.38L72.1078 31.54C72.1078 30.5133 72.2611 29.6467 72.5678 28.94C72.8745 28.22 73.3145 27.6733 73.8878 27.3C74.4745 26.9133 75.1878 26.72 76.0278 26.72C76.6278 26.72 77.1545 26.8133 77.6078 27C78.0745 27.1733 78.4611 27.4333 78.7678 27.78C79.0878 28.1267 79.3211 28.56 79.4678 29.08C79.6278 29.5867 79.7078 30.18 79.7078 30.86V37H77.3878V31.54C77.3878 30.98 77.3345 30.52 77.2278 30.16C77.1345 29.7867 76.9878 29.4933 76.7878 29.28C76.6011 29.0667 76.3678 28.9133 76.0878 28.82C75.8078 28.7267 75.4945 28.68 75.1478 28.68C74.6945 28.68 74.2811 28.8 73.9078 29.04C73.5478 29.2667 73.2545 29.6467 73.0278 30.18C72.8145 30.7 72.7078 31.4067 72.7078 32.3V37H70.3878ZM89.5823 37.24C88.969 37.24 88.4423 37.18 88.0023 37.06C87.5757 36.94 87.2223 36.74 86.9423 36.46C86.6757 36.18 86.4823 35.8 86.3623 35.32C86.2423 34.84 86.1823 34.2333 86.1823 33.5V23.14H88.4423V33.46C88.4423 33.9933 88.4957 34.4 88.6023 34.68C88.709 34.96 88.8823 35.1467 89.1223 35.24C89.3623 35.3333 89.689 35.38 90.1023 35.38C90.3557 35.38 90.629 35.3533 90.9223 35.3C91.2157 35.2333 91.469 35.12 91.6823 34.96V36.92C91.549 36.9867 91.3557 37.04 91.1023 37.08C90.849 37.1333 90.5823 37.1733 90.3023 37.2C90.0357 37.2267 89.7957 37.24 89.5823 37.24ZM84.2623 28.62V26.9H91.6823V28.62H84.2623ZM104.349 37V26.9H106.549V31.78H106.109C106.149 30.7267 106.315 29.8333 106.609 29.1C106.915 28.3533 107.342 27.7867 107.889 27.4C108.449 27.0133 109.122 26.82 109.909 26.82C110.015 26.82 110.129 26.8267 110.249 26.84C110.369 26.84 110.475 26.8533 110.569 26.88V29.12C109.955 29.12 109.402 29.1667 108.909 29.26C108.429 29.3533 108.022 29.5267 107.689 29.78C107.355 30.02 107.102 30.3667 106.929 30.82C106.755 31.26 106.669 31.84 106.669 32.56V37H104.349ZM120.077 37.2C119.01 37.2 118.077 36.98 117.277 36.54C116.477 36.0867 115.857 35.4667 115.417 34.68C114.99 33.8933 114.777 32.9867 114.777 31.96C114.777 30.92 114.99 30.0067 115.417 29.22C115.857 28.4333 116.477 27.82 117.277 27.38C118.077 26.94 119.01 26.72 120.077 26.72C121.157 26.72 122.09 26.94 122.877 27.38C123.677 27.82 124.297 28.4333 124.737 29.22C125.177 30.0067 125.397 30.92 125.397 31.96C125.397 32.9867 125.177 33.8933 124.737 34.68C124.297 35.4667 123.677 36.0867 122.877 36.54C122.09 36.98 121.157 37.2 120.077 37.2ZM120.077 35.32C120.703 35.32 121.23 35.18 121.657 34.9C122.097 34.6067 122.43 34.2133 122.657 33.72C122.897 33.2133 123.017 32.6267 123.017 31.96C123.017 31.4667 122.95 31.0133 122.817 30.6C122.697 30.1733 122.51 29.8133 122.257 29.52C122.003 29.2267 121.69 29 121.317 28.84C120.957 28.68 120.543 28.6 120.077 28.6C119.463 28.6 118.937 28.74 118.497 29.02C118.057 29.3 117.723 29.6933 117.497 30.2C117.27 30.7067 117.157 31.2933 117.157 31.96C117.157 32.6267 117.27 33.2133 117.497 33.72C117.723 34.2133 118.057 34.6067 118.497 34.9C118.937 35.18 119.463 35.32 120.077 35.32ZM134.063 37.18C133.463 37.18 132.93 37.0933 132.463 36.92C131.996 36.7467 131.61 36.4867 131.303 36.14C130.996 35.78 130.763 35.3467 130.603 34.84C130.443 34.32 130.363 33.72 130.363 33.04V26.9H132.683V32.36C132.683 32.9333 132.73 33.4067 132.823 33.78C132.93 34.14 133.083 34.4267 133.283 34.64C133.483 34.8533 133.716 35.0067 133.983 35.1C134.263 35.18 134.583 35.22 134.943 35.22C135.383 35.22 135.783 35.1067 136.143 34.88C136.516 34.6533 136.81 34.2733 137.023 33.74C137.25 33.2067 137.363 32.4933 137.363 31.6V26.9H139.683V37H137.503V32.4L138.023 32.36C138.023 33.3733 137.863 34.24 137.543 34.96C137.236 35.68 136.79 36.2333 136.203 36.62C135.616 36.9933 134.903 37.18 134.063 37.18ZM149.758 37.24C149.145 37.24 148.618 37.18 148.178 37.06C147.751 36.94 147.398 36.74 147.118 36.46C146.851 36.18 146.658 35.8 146.538 35.32C146.418 34.84 146.358 34.2333 146.358 33.5V23.14H148.618V33.46C148.618 33.9933 148.671 34.4 148.778 34.68C148.885 34.96 149.058 35.1467 149.298 35.24C149.538 35.3333 149.865 35.38 150.278 35.38C150.531 35.38 150.805 35.3533 151.098 35.3C151.391 35.2333 151.645 35.12 151.858 34.96V36.92C151.725 36.9867 151.531 37.04 151.278 37.08C151.025 37.1333 150.758 37.1733 150.478 37.2C150.211 37.2267 149.971 37.24 149.758 37.24ZM144.438 28.62V26.9H151.858V28.62H144.438ZM161.672 37.18C160.579 37.18 159.639 36.96 158.852 36.52C158.079 36.08 157.486 35.4667 157.072 34.68C156.659 33.8933 156.452 32.9867 156.452 31.96C156.452 30.9333 156.646 30.0333 157.032 29.26C157.432 28.4733 158.012 27.86 158.772 27.42C159.546 26.9667 160.472 26.74 161.552 26.74C162.619 26.74 163.519 26.96 164.252 27.4C164.999 27.8267 165.566 28.4333 165.952 29.22C166.339 30.0067 166.532 30.9267 166.532 31.98V32.56H158.052V30.98H164.832L164.432 31.7C164.432 31.0333 164.312 30.46 164.072 29.98C163.846 29.4867 163.519 29.1133 163.092 28.86C162.666 28.5933 162.166 28.46 161.592 28.46C161.059 28.46 160.572 28.5867 160.132 28.84C159.706 29.08 159.366 29.4533 159.112 29.96C158.859 30.4667 158.732 31.12 158.732 31.92C158.732 32.68 158.859 33.32 159.112 33.84C159.366 34.3467 159.719 34.7333 160.172 35C160.626 35.2533 161.132 35.38 161.692 35.38C162.159 35.38 162.566 35.3067 162.912 35.16C163.259 35 163.546 34.7933 163.772 34.54C163.999 34.2867 164.159 34.0067 164.252 33.7H166.432C166.312 34.38 166.046 34.98 165.632 35.5C165.232 36.02 164.699 36.4333 164.032 36.74C163.366 37.0333 162.579 37.18 161.672 37.18ZM171.219 37V34.3H173.819V37H171.219Z" fill="black"/>
</svg>
