<?xml version="1.0" encoding="UTF-8"?>
<svg id="Layer_2" data-name="Layer 2" xmlns="http://www.w3.org/2000/svg" viewBox="0 0 456.23 279.63">
  <g id="Layer_2-2" data-name="Layer 2">
    <g>
      <path d="M152.81,158.79c1-.69,5.37-7.83,5.34-9.1,0-.35-4.78-4.69-4.84-5.04-.4-2.46,4.07-4.45,4.57-8.32.16-1.28.3-11.99.11-12.59-1.54-4.82-18.47,8.71-15.74-1.96.61-2.37,12.4-8.93,13.42-10.72,1.14-2-1.24-5.11-.54-5.98.36-.45,8.72,2.03,3.48-6.99-1.74-.8-5.28,8.51-9.55,5.55-6.01-4.18,9.06-8.86,10.56-11.58,1.34-2.43-.99-7.78,6.1-5.18,1.51.55,1.45,2.27,1.95,2.25.4-.02,7.4-2.01,7.75-2.21,1.64-.98,2.1-3.36,3.38-3.75,1.52-.47,3.23.82,4.71.55,3.41-.61,13.18-5.9,13.47,1.05.16,3.8-8.39,7.94-10.81,9.89-4.16,3.35-8.38,7.59-13.09,10.88-2.48,1.73-8.59,2.05-6.43,6.57,9.42-3.22,25.72-2.51,24.96,10.91-.28,5.01-12.14,13.81-16.56,15.51-3.83,1.48-5.75-1.34-4.93,4.58-4.79-2.49-6.55,4.23-6.99,7.99,2.05-1.45,4.27-.03,6.09-.43,1.65-.36,13.99-7.2,16.72-8.46,12.24-5.66,25.57-11.28,35.94-16.83,2.2-1.18,3.14-5.26,7.26-3.3-2.01-3.52-9.18-5.87-9.01-10.4.08-2.31,2.57-4.75,3.25-6.89,2.39-7.55,4.19-16.05,7.04-23.95,1.16-3.22,4.42-2.35.73-7.22,1.66-2.14,4.35-2.78,7-2.56-2.04,9.91,9.86,13.05,14.64,20.37l4.85,13.64c4.6-4.3,5.59-11.34,5.58-17.52s-6.76-3.14-5.04-11.45c4.77,1.07,11.29-5.27,14.65-5.72,2.81-.37,7.87,3.88,9.18-1.05.74-2.79-1.39-19.3-5.13-10.97-.26.57-1.86,13.59-4.72,10.69-.51-.52,3.16-13.55,3.66-14.08,1.64-1.7,6.79-3.75,9.07-1.64,1.25,1.16,5.41,13.32,4.28,15.72,1.66.39.37-1.52,1.7-2.01.95-.35,2.95.28,3.3.01.4-.3-2.14-7.98-1-10,4.32-4.33,16.67,14.04,17.02,18.01l1.98-.02c-.2-2.18.33-2.06,2-.97,2.19-6.27-.05-16.22,9.88-13.89.94.58,1.75,19.96-1.84,21.38,1.19,4.25,10.93-.44,9.94,2.95-2.74,9.36-8.96-.72-10.8,10.33-.45,2.71,1.95,4.26-.75,6.12-5.3,3.65-7.34-4.11-6.42-7.89-2.29-.7-3.93-.55-6.17.28-3.01,1.11-14.67,7.45-17.58,9.37-1.33.88-2.05,3.12-2.83,3.29-1.49.33-3.42-2.83-8.26-1.31-3.43,1.08-20.09,7.86-22.16,9.88-1.52,1.49-.27,3.83-2,3.48.6-4.24-6.38,0-8.72.68-.97.28-2.52-.93-3.14-.58-.4.23-.56,2.54-2.16,3.4s-4.47.57-6.56,1.45c-10.08,4.26-22.3,9.97-30.75,15.76-.99.68-2.88.06-4.23,1.27-1.58,1.42-1.39,7.97-4.95,2.03-3.88,3.51-13.24,4.79-13.54,10.01-5.14-2.33-7.61,2.59-11.98,4.03-1.13,2.67,2.72,2.14,3,3.5.19.9-2.18,4.35-3.31,4.8-3.28,1.32-3.56-3.94-5.28-4.3-.98-.21-2.52,1.75-4.01,1.99-4.28.71-2.06-1.15-6.14.97s-7.25,1.93-7.38,7.5c-.25,11.41,4.7,26.5,8.08,37.06.58,3.14-2.54-.14-2.98.48-1.47,2.09,1.68,3.18,1.76,3.49.47,1.71,1.98,15.99,2.02,18.02.03,1.45-.9,2.97-.8,4.5-4.74-1.64-1.87-5.28-2.32-7.37-3.22-15.17-7.25-30.78-10.62-46.21-.73-3.32,1.15-7.87-2.64-10.41l-50.1,24.23c-3.59,3.77,1.29,6.88.7,10.09-.11.61-1.68.68-1.76.94-2.8,8.69-5.22,15.21-7.19,25.3-2.55,13.04-3.94,28.69-8.79,41.23-3.52,9.11-12.96,11.43-11.26-.21.43-2.96,3.24-5.33,2.97-8.59,2.61-1.24,1.74,2.34,2.48,2,3.43-1.54,5.66-21.09,6.63-25.38,2.55-11.24,7.22-24.66,7.77-36.28.28-5.91-1.26-5.64-6.44-3.42-8.44,3.63-17.95,9.38-26.54,13.49-12.14,5.8-27.12,11.91-37.88,18.07-2.46,1.41-3.01,4.7-7.05,4.06-6.56-1.04,4.55-6.09,5.98-7.09,13.56-9.42,30.42-17.79,45.85-25.15,5.12-2.44,26.96-9.97,28.64-13.38,1.3-8.58,3.82-17.05,5.5-25.51,9.18-46.03,14.37-93.44,21.04-140.02.92-6.42-.86-25.76,9.42-24.46,4.57.58,6.23,6.6,7.35,10.72,4.2,15.51,2.22,33.78,4.21,48.82,3.6,27.23,5.96,56.25,10.16,83.79.41,2.7,2.61,16.39,3.82,17.28s7.64-1.1,8.77-1.88ZM90.1,188.11l48.77-24.5L117.6,6.05l-20.49,134.05c-.56,2.67.54,1.45,1.98,2.48-1.89,1.24-4.85,9.51-4.66,11.03.21,1.71,3.71,2.08,3.48,5.73-.27,4.39-4.01,1.82-4.89,3.38-1.13,2-3.68,24.35-2.92,25.38ZM303.53,75.7c-1.63-1.25-3.48-6.47-6.9-3.74-2.48,1.97-1.3,5.98-5.45,2.1-1.17,7.64-1.2,15.57,1,23,5.81-4.95,11.45-6.61,18.99-5.99-.89-2.11,1.27-9.12.6-10.04-.29-.4-6.61-4.09-8.24-5.33ZM282.88,98.78c2.95-2.73,3.19-21.85-2.37-22.61-1.09-.15-2.23,1.54-3.82,1.8-.99.16-2.83-1.26-3.48-.9s-1.69,6.05-2.14,7.22c-.39,1.03-1.99.56-1.95,1.27.2,3.35,5.02,1.5,4.01,3.98-4.69,2.14-2.82,4.21-3.51,5.43-2.16,3.77-5.76,4.7-5.48,10.09,5.26.95,8.75-2.72,12.77-4.72,1.62-.8,4.34-.07,5.95-1.56ZM177.76,93.7c.86-.97,1.32-2.28,2.34-3.14-3.75-4.25-4.35.88-5.95,1.93-1.19.78-8.13-.41-7.03,7.06.56,3.77,9.6-4.68,10.64-5.85ZM241.79,109.72c6.26-6.14-4.08-17.1-11.65-15.65,2.99,3.79-8.18,22.15.5,21.65.63-.04,10.52-5.38,11.15-6ZM182.86,117.34c-.87-.8-4.83-2.04-6.09-1.97-.49.02-9.03,2.63-9.43,2.92-1.61,1.19-1.65,14.77-2.22,17.79,3.96.89,5.66-3.18,8.03-4.46,1.99-1.08,7.2-2.04,9.38-4.59s3.11-7.15.33-9.69Z"/>
      <path d="M395.06,27.18c.63.81-.06,3.56.14,4.86-2.83-2.62-17.68,3.47-18,5.52s4.56,3.43,5.56,3.39c.39-.01,1.25-3.73,6.43-.92-2.1-5.32.57-2.76,3.02-.49l-3.97,5.96c-2.07-1.53-10.43,5-10.82,5.76-1.74,3.32,2.03,12,.71,16.17,7.02,4.37,9.9-3.74,15.07-6.89-.82-1.01-2.53.12-1.99-1.98l3.98-4.51.48,11.01c2.35,3.53,9.66-5.22,6.55,1.99l3.99,2c-8.88-1.45-13.96,4.01-22,6.02l2,2.98c-3.46-1.67-7.74,1.24-10.29.85s-3.13-3.36-6.9-2.63c-5.45,1.05-4.94,4.78-5.9,5.76-.3.31-2.26-.84-3.63-.24-4.44,1.95-10.48,7.36-16.55,5.92-3.57-.85-5.53-5.18-8.73-1.64-.46-3.28,3.66-4.72,3.99-7.52.63-5.46-4.08-12.51.99-18-6.91-3.13-1.39-8.71-.51-12.37.6-2.51-1.12-6.71,2.5-9.66,2.28-2.03,1.92,1.55,2.53,1.57,1.41-.2,3.99-3.4,4.49-.53.64,3.66-2.41,12.31-2.91,16.07-.71,5.28-1.11,7.96-2.09,12.95-.11.55,1.82.32,2,1.14.58,2.61-1,9.95,4.26,9.19,1.5-1.72,8.87-3.55,9.52-4.09.57-.48.42-2.55,1.18-3.29,5.74-5.57,15.75-14.7,6.13-22.04-1.09-3.55,3.4-1.96,3-5.94s-9.79-1.83-5.14-8.13c.75-1.02,22.46-8.14,23.83-8.27,2.05-.19.85,2.39,1.75,1.89.57-.32,2.66-5.32,5.36-1.86Z"/>
      <path d="M215.14,75.06c-2.81,16.47-2.02,32.34-2.01,49.03-7.35,1.98-6.52-6.76-7.23-12.36-.83-6.5-1.43-31.44,2.73-35.66,1.71-1.74,4.39-.88,6.51-1Z"/>
      <path d="M456.23,60.07l-12.64,3.97-5.35-1.98c1.29,4.87-3.96,1.29-8.58,1.92-1.75.24-1.3,1.77-2.11,1.94-4.71,1.04-11.28,3-15.32-.37,3.31-1.63,6.84,3.16,6.05-2.46,5.1,1.79,9.25-1.23,13.7-1.79,1.32-.16,6.4-.88,6.76-.88.76.01,2.5,2.28,3.46,1.61.22-.15.19-2.51,1.64-2.91s10.23.73,12.4.94Z"/>
    </g>
  </g>
</svg>