<?xml version="1.0" encoding="UTF-8"?>
<svg id="Layer_2" data-name="Layer 2" xmlns="http://www.w3.org/2000/svg" viewBox="0 0 1220.85 766.43">
  <defs>
    <style>
      .cls-1 {
        fill: #fff;
      }

      .cls-2 {
        opacity: .85;
      }
    </style>
  </defs>
  <g id="Layer_2-2" data-name="Layer 2">
    <g class="cls-2">
      <g>
        <path class="cls-1" d="M965.56,421.87c-5.94.18-11.9.37-17.88.55-5.97.3-11.94.6-17.92.9,6.01-.18,11.96-.28,18.07-.27,7.82-.07,11.88-.6,17.73-1.18Z"/>
        <path class="cls-1" d="M896.74,425.78c-2.15.18-4.32.37-6.32.54-1.91.23-3.74.5-5.39.72,3.88-.49,7.82-.88,11.71-1.26Z"/>
        <path class="cls-1" d="M834.92,433.22c10.91-1.37,21.37-2.67,31.46-3.93-4.47.45-9.3.98-14.53,1.6-5.23.65-10.85,1.45-16.93,2.34Z"/>
        <path class="cls-1" d="M884.24,427.94c-3.83.11-5.74,0,.53-.86.08,0,.15-.02.26-.03-6.17.75-12.29,1.41-18.65,2.24,6.69-.68,12.7-1.04,17.86-1.35Z"/>
        <path class="cls-1" d="M884.24,427.94c1.85-.08,4.24-.17,6.42-.26,2.18-.07,4.16-.14,5.16-.15-3.37.03-7.26.15-11.59.41Z"/>
        <path class="cls-1" d="M869.37,436.32c-6.19.94-4.94-1.14-17.19.72-28.76,4.08-53.22,8.56-80.13,12.68-12.18,2.31-31.83,3.24-44,5.59-14.38,2.56-39.9,7.26-56.32,10.58-16.44,3.34-23.88,5.16-2.25,1.63,16.28-2.64,31.15-5.05,45.2-7.32,14.05-2.31,27.29-4.49,40.32-6.64,26.05-4.27,51.25-8.36,80.5-12.39,23.74-3.52,47.07-6.6,70.62-8.96,23.54-2.36,47.3-4.06,71.84-4.65,3.44-.04,6.82-.08,10.16-.12,3.34.06,6.63.12,9.9.19,3.27.08,6.51.15,9.75.23,3.22.15,6.44.26,9.66.48-16.79-1.05-34.1-1.38-53.28-1.23-25.3.13-55.6,4.47-94.78,9.23Z"/>
        <path class="cls-1" d="M1220.47,474.65c-.58-1.62-1.78-3.46-3.38-5.06-.8-.79-1.66-1.56-2.56-2.26-.88-.67-1.72-1.28-2.57-1.82-1.67-1.1-3.24-1.93-4.37-2.54-1.14-.58-1.85-.93-1.85-.93-6.03-3.58-12.57-6.39-19.24-8.88-6.69-2.47-13.56-4.58-20.53-6.48-13.94-3.77-28.26-6.69-42.62-9.19,4.1,1.12,8.27,2.28,12.48,3.51,8.16,1.69,12.71,2.63,13.45,2.59.74-.02-2.33-1.03-9.52-2.83,16.44,4.24,32.38,8.63,47.75,14.23,7.65,2.86,15.25,5.94,22.17,10.28,1.72,1.1,3.39,2.27,4.91,3.65,1.52,1.36,2.92,2.9,3.89,4.71.95,1.81,1.31,3.96.8,5.97-.55,1.99-1.79,3.72-3.22,5.2.49-.27.81-.51,1.21-.74.39-.24.8-.52,1.29-1.06.24-.27.56-.57.82-1.01.28-.43.62-.93.86-1.6.54-1.29.95-3.25.23-5.73Z"/>
        <path class="cls-1" d="M1199.56,494.6c2.98-1.23,5.92-2.61,8.73-4.18,2.8-1.57,5.52-3.37,7.78-5.64-.15.07-.41.25-.63.38-2.31,2.24-5.07,4.01-7.88,5.56-2.82,1.54-5.74,2.87-8.66,4.1.21-.07.44-.15.66-.22Z"/>
        <path class="cls-1" d="M704.7,454.56c-81.75,12.57-158.4,26.24-233.22,39.73-5.68,1.42-9.63,2.58-17.39,3.78-5.89.74-11.82,1.62-17.68,2.55-10.93,1.97-21.85,3.94-32.67,5.9-3.78.74-7.6,1.49-11.48,2.26-.05.01-.23.05-.31.07-6.09,1.34-4.22,1.29-.38.88,4.27-.57,8.19-1.05,11.55-1.41-2.14.23-7.8,1.01-11.55,1.41-5.19.7-10.96,1.56-17.68,2.68-9.93,1.94-20.32,3.96-31.09,5.83,11.91-2.42,22.21-4.35,31.09-5.83,6.29-1.24,12.32-2.44,18.37-3.63,1.73-.37,3.47-.75,5.28-1.14-12.47,2.25-24.91,4.48-37.33,6.72-12.42,2.26-24.81,4.51-37.23,6.68-5.7,1.05-11.15,2.05-15.59,2.86-8.98,1.67-17.97,3.19-26.12,4.4-4.08.57-7.95,1.07-11.51,1.46-3.56.36-6.8.61-9.62.74-4.42.5-8.92,1.02-13.43,1.47.84-.03,1.76-.07,2.61-.1-2,.17-3.69.25-5.06.33-9.44.97-18.93,1.59-28.43,2.13l-7.14.28-3.57.14-3.57.06-7.15.12-7.16-.05c-12.33.27-25.09.1-37.81-.99,0,0-2.12-.41-4.75-.92-1.32-.26-2.76-.54-4.13-.82-1.37-.31-2.66-.61-3.69-.85-1.3-.08-2.73-.18-4.28-.32-.78-.07-1.58-.15-2.42-.23-.83-.12-1.69-.23-2.58-.36-3.54-.53-7.54-1.06-11.77-2.01,1.24.36,2.47.71,3.68,1.06,1.22.31,2.43.62,3.63.92,2.4.6,4.75,1.19,7.05,1.77,2.32.49,4.6.97,6.83,1.44,1.12.23,2.23.46,3.32.69,1.1.19,2.2.37,3.28.56,6.34,1.29,13.58,1.5,21.06,1.61,3.75,0,7.55.14,11.37.2,3.82.1,7.65.42,11.45.84-3.8-.42-7.62-.74-11.45-.84-3.82-.06-7.63-.2-11.37-.2-7.48-.1-14.72-.32-21.06-1.61-1.08-.18-2.18-.37-3.28-.56-1.1-.23-2.21-.46-3.32-.69-2.23-.47-4.51-.95-6.83-1.44-2.3-.58-4.65-1.17-7.05-1.77-1.2-.3-2.41-.61-3.63-.92-1.21-.35-2.44-.7-3.68-1.06-2.21-.47-4.5-.93-6.84-1.48-2.32-.61-4.71-1.24-7.14-1.88-2.44-.61-4.87-1.41-7.32-2.2-1.23-.4-2.46-.8-3.7-1.2l-1.86-.61-1.83-.69c-2.44-.93-4.88-1.86-7.31-2.79-2.42-.96-4.76-2.07-7.1-3.09-1.16-.52-2.32-1.04-3.47-1.56-1.12-.57-2.24-1.13-3.34-1.69-2.19-1.14-4.33-2.25-6.41-3.33,10.65,4.7,20.58,8.6,29.91,12.05,2.35.81,4.66,1.6,6.92,2.37,1.13.39,2.25.8,3.36,1.17,1.12.35,2.23.7,3.33,1.04,2.2.7,4.36,1.39,6.48,2.07,2.14.61,4.25,1.21,6.32,1.8,4.23.95,8.23,1.48,11.77,2.01.89.12,1.75.24,2.58.36.84.08,1.64.16,2.42.23,1.55.14,2.99.24,4.28.32,1.03.24,2.33.54,3.69.85,1.38.27,2.82.56,4.13.82,2.64.51,4.75.92,4.75.92,12.72,1.09,25.47,1.26,37.81.99-18.63-.14-37.32-1.71-55.89-4.81-9.26-1.69-18.53-3.56-27.64-6.2-4.6-1.16-9.09-2.74-13.64-4.15-2.26-.76-4.48-1.62-6.73-2.42l-3.37-1.23c-1.12-.41-2.21-.9-3.32-1.35-14.25-5.75-27.91-12.92-40.62-21.14-6.22-4.2-11.94-9.02-16.06-14.96-1.04-1.47-1.96-3.01-2.78-4.61-.78-1.64-1.61-3.25-2.21-4.96-.72-1.67-1.14-3.42-1.67-5.14-.36-1.76-.8-3.51-.96-5.3-.95-7.13.11-14.42,2.48-21.24,1.23-3.41,2.75-6.72,4.54-9.89,1.83-3.15,3.88-6.19,6.13-9.09,2.29-2.87,4.72-5.62,7.33-8.21,2.63-2.57,5.36-5.04,8.26-7.31,5.77-4.56,12.02-8.53,18.6-11.73,3.3-1.58,6.67-3,10.11-4.16,3.53-1.04,7.02-2.2,10.63-2.95,1.79-.43,3.58-.87,5.4-1.15,1.82-.31,3.62-.67,5.45-.94l5.49-.69c1.83-.25,3.68-.31,5.52-.48,7.37-.52,14.78-.6,22.19-.18,7.41.38,14.81,1.08,22.18,2.16,7.37,1.05,14.72,2.32,22.03,3.86,3.66.74,7.31,1.56,10.95,2.39l5.46,1.28,5.3,1.42c14.05,4.13,27.33,10.79,39.21,19.48,11.9,8.69,22.56,19.13,32.11,30.56,9.54,11.45,18.13,23.78,26.04,36.61,7.93,12.82,15.26,26.1,22.41,39.58,7.13,13.5,14.25,27.09,21.25,40.79,14.04,27.41,27.93,55.28,43.42,82.79,1.96,3.43,3.86,6.89,5.88,10.3,2.01,3.41,4.02,6.83,6.04,10.26,2.09,3.39,4.17,6.78,6.27,10.17,2.08,3.4,4.32,6.72,6.48,10.09,8.78,13.4,18.18,26.55,28.37,39.25,5.59,6.75,11.17,13.48,16.74,20.19,2.85,3.38,5.8,6.71,8.98,9.91,3.18,3.19,6.55,6.28,10.43,9,1.93,1.36,4.02,2.62,6.34,3.66,2.32,1.03,4.87,1.86,7.79,2.06,2.95.21,5.96-.37,8.59-1.74,2.65-1.35,4.98-3.47,6.52-5.9,1.53-2.39,2.46-4.85,3.09-7.24.62-2.39,1.04-4.75,1.27-7.07.48-4.64.45-9.14.25-13.59-.46-8.88-1.69-17.51-3.1-26.02-.72-4.2-1.44-8.39-2.17-12.58-.66-4.21-1.32-8.42-1.98-12.63-2.8-16.93-6.42-33.62-10.42-50.1-8.01-32.96-17.53-65.12-25.87-97.2-1.05-4.01-2.08-8.02-3.07-12.03l-1.5-6.01-1.43-6.01c-.97-4-1.88-8.02-2.79-12.06-.91-4.03-1.81-8.05-2.71-12.07-3.52-16.11-6.86-32.2-9.95-48.3-3.47-18.21-6.66-36.35-9.57-54.43-2.87-18.09-5.44-36.12-7.74-54.11-4.58-35.99-7.91-71.75-10.34-107.51-1.31-17.91-2.61-35.78-3.91-53.62-1.26-17.81-2.35-35.55-3.2-53.33-.87-17.87-1.92-36.15-5.69-54.43-.95-4.57-2.07-9.14-3.45-13.68-.33-1.14-.7-2.27-1.09-3.4l-.58-1.73-.96-2.51-.96-2.51-1.11-2.5-1.12-2.5-1.22-2.36-1.23-2.35-1.32-2.17c-.44-.71-.87-1.46-1.32-2.15l-1.38-1.98c-.46-.64-.91-1.35-1.39-1.94l-1.43-1.76c-.95-1.21-1.92-2.28-2.9-3.38-1.95-2.2-3.96-4.39-6.09-6.65l-3.33-3.48c-.32-.38-.48-.37-.69-.49l-.61-.29-1.22-.58-4.43,15.97c-.74,2.63-1.44,5.34-2.15,8.04-.69,2.68-1.45,5.45-2.1,8.07l-1.85,7.8-.84,3.57-.56,2.53c-.76,3.37-1.48,6.74-2.2,10.11-2.86,13.49-5.42,26.98-8.07,40.42-1.32,6.72-2.66,13.42-4.06,20.1-.72,3.33-1.44,6.66-2.16,9.99-.76,3.33-1.52,6.67-2.28,10-3.15,13.41-6.3,26.86-9.46,40.36-12.82,53.94-26.39,108.44-40.8,163.99-6.35,24.63-13.86,54.59-21.94,87.16-4.02,16.29-8.2,33.22-12.46,50.47-4.23,17.24-8.6,34.63-13.16,52.08-9.08,34.85-18.49,69.63-26.63,101.85-4.09,16.1-7.86,31.56-11.21,46.03-.83,3.62-1.65,7.17-2.45,10.66-.9,4.06-1.78,8.04-2.65,11.93-1.46,6.56-2.71,12.88-3.96,19.02-1.25,6.15-2.47,12.14-3.65,17.96-1.14,6.17-2.24,12.1-3.11,16.8,1.66-.59,3.25-1.15,4.78-1.66.38-.13.76-.25,1.14-.38.4-.14.64-.19,1.34-.47,1.17-.45,2.32-.89,3.46-1.33,4.36-1.69,7.84-3.12,11-4.51,3.17-1.43,6.15-3.25,9.07-5.48,2.91-2.23,5.78-4.94,8.5-8.02,2.72-3.06,5.24-6.5,7.51-9.66.57-.78,1.13-1.55,1.68-2.31.27-.37.55-.75.81-1.11l.4-.55.36-.46c.72-.93,1.42-1.83,2.09-2.7.88-1.11,1.67-2.06,2.36-2.72.35-.39.66-.61.96-.93.3-.23.57-.49.84-.68,1.04-.78,1.98-1.21,2.95-1.56.51-.09.95-.3,1.41-.37.45-.08.85-.2,1.21-.29,1.47-.27,2.06-.8,1.81-1.48-.25-.68-1.31-1.61-2.95-2.34-1.62-.7-3.84-1.11-6.16-.75-2.31.35-4.6,1.46-6.35,2.61-1.77,1.14-3.02,2.29-3.57,2.79-3.03,2.82-5.46,5.61-7.79,8.1-2.32,2.49-4.54,4.7-6.88,6.48-2.33,1.79-4.8,3.13-7.38,3.91-.65.17-1.29.37-1.95.47l-.49.09-.24.05-.12.02s.02-.1.03-.15l.34-1.33c.43-1.7.87-3.4,1.3-5.1,1.49-5.8,2.98-11.65,4.52-17.64.35-1.33.7-2.67,1.05-4.02.48-1.94.96-3.89,1.45-5.85,1-4.01,2.02-8.08,3.05-12.23,4.15-16.57,8.67-34.29,13.93-54.04,5.25-19.76,11.26-41.54,18.18-66.31,3.46-12.39,7.13-25.53,11.04-39.52,3.88-13.99,7.97-28.94,12.23-44.77-7.21,27.13-10.05,35.6-9.45,31.44.61-4.14,4.41-20.93,9.96-44.24,11.15-46.64,29.53-119.59,44.07-170.59,11.18-38.81,22.41-82.28,33.44-128.68,1.37-5.8,2.74-11.65,4.13-17.54,1.37-5.91,2.76-11.76,4.1-17.87,2.69-12.13,5.05-24.37,7.41-36.66,2.35-12.29,4.67-24.63,7.23-36.93.98-4.57,1.96-9.17,2.95-13.79l.04-.19s0-.09.03-.07l.06.05c.08.07.16.15.24.23.15.17.31.35.44.55.14.2.27.41.39.64.13.24.2.4.42.95l.57,1.65c.21.63.44,1.24.63,1.88.39,1.27.8,2.54,1.15,3.84.75,2.58,1.37,5.23,1.99,7.89,1.18,5.35,2.1,10.84,2.86,16.41,1.5,11.15,2.28,22.58,2.91,34.24.64,11.73,1.33,23.54,2.14,35.27,1.59,23.48,3.51,46.76,5.15,69.71.41,5.76.82,11.5,1.24,17.23.42,5.75.82,11.48,1.3,17.19.89,11.42,1.89,22.75,2.95,33.97,4.48,47.37,12,97.47,22.98,153.29,3.45,18.1,7.24,36.06,11.21,53.89,1.01,4.45,2.03,8.9,3.04,13.35,1.07,4.46,2.13,8.92,3.2,13.37,2.22,8.87,4.5,17.7,6.87,26.46,9.43,35.05,19.73,69.27,27.54,103.61.94,4.29,1.96,8.58,2.81,12.88.89,4.29,1.78,8.58,2.54,12.88l1.19,6.44,1.05,6.45,1.08,6.66,1.2,6.77c1.59,8.71,3.02,17.15,3.79,25.41.38,4.11.59,8.15.51,11.94-.05,1.88-.18,3.69-.39,5.35-.23,1.63-.55,3.11-.92,4.19-.34,1.08-.8,1.72-.69,1.55-.03-.03,0,.02,0,0-.02-.02.04-.04.07-.04-.02-.03-.01,0-.01.01-.02-.04-.01,0-.02,0-.01-.04,0,.01-.02,0,0-.04,0,.03-.02,0,0-.01,0-.01,0,0,0,.01,0,.03-.08,0-.14-.05-.21,0-.41-.08-.67-.16-1.79-.57-3.05-1.3-2.54-1.44-5.47-3.75-8.29-6.4-2.84-2.66-5.65-5.65-8.42-8.81-2.79-3.18-5.47-6.47-8.46-10.05l-8.57-10.17c-5.51-6.71-10.86-13.57-15.98-20.64-20.58-28.23-38.2-59-55.03-90.7-8.42-15.86-16.66-31.96-25.04-48.16-4.19-8.1-8.44-16.22-12.72-24.34-4.27-8.06-8.56-16.2-12.99-24.34-8.85-16.29-18.23-32.63-29.01-48.43-10.78-15.78-22.99-31.1-37.74-44.54-7.36-6.71-15.35-12.92-23.99-18.31-8.64-5.39-17.92-9.99-27.69-13.4-2.47-.78-4.91-1.66-7.4-2.35l-3.76-1c-1.26-.34-2.52-.68-3.68-.93-4.72-1.11-9.47-2.17-14.27-3.17-9.59-1.99-19.35-3.7-29.29-4.92-10.54-1.26-21.1-1.9-31.61-1.67-10.5.23-20.97,1.35-31.16,3.6-2.54.63-5.07,1.24-7.58,1.9-2.49.78-4.97,1.56-7.44,2.34-5.1,1.78-9.91,3.96-14.48,6.43-9.13,4.95-17.36,11.01-24.67,17.99-7.3,6.97-13.64,14.99-18.44,24.05-2.38,4.53-4.36,9.34-5.74,14.38C.74,441.77-.01,447.05,0,452.33c0,5.29.78,10.57,2.24,15.57.4,1.24.76,2.49,1.21,3.7l1.46,3.58c1.11,2.32,2.19,4.57,3.59,6.84,1.39,2.22,2.92,4.32,4.56,6.28,1.66,1.95,3.41,3.76,5.22,5.46,3.64,3.36,7.5,6.22,11.37,8.74,2.81,1.88,5.64,3.58,8.48,5.18,1.42.82,2.84,1.64,4.26,2.45,1.42.83,2.84,1.65,4.31,2.38,2.92,1.51,5.83,3.05,8.77,4.53l8.96,4.17c12.05,5.32,24.44,9.7,36.76,13.14,12.32,3.42,24.55,6.04,36.3,7.71,11.75,1.7,23.01,2.75,33.44,3.22,16.41.78,32.21.41,47.46-.53,15.25-.95,29.94-2.53,44.19-4.44,28.5-3.84,55.21-9,81.18-14.2-29.1,5.52-54.42,10.17-80.88,13.68-13.23,1.75-26.75,3.24-41.17,4.24-14.42.99-29.76,1.53-46.59,1.02-2.81-.05-5.14-.21-7.04-.33-1.9-.12-3.37-.23-4.45-.32-2.15-.18-2.74-.31-2.09-.39.65-.08,2.54-.11,5.33-.11,1.4,0,3.02.02,4.83.03,1.81-.02,3.8-.04,5.94-.07,8.55-.02,19.39-.49,29.9-1.16,2.62-.19,5.23-.38,7.78-.56,2.55-.2,5.03-.45,7.42-.65,4.78-.39,9.14-.9,12.79-1.26,6.24-.75,14.31-1.14,22.38-1.67,8.07-.53,16.13-1.2,22.31-2.32,27-3.94,51.41-9.35,79.91-15.19,12.18-2.7,11.11-.53,17.19-1.87,38.94-7.56,68.56-15.54,93.58-19.58,18.97-3.18,36.1-6,52.79-8.7,10.55-1.8,21.02-3.57,32.14-5.63,6.88-1.37,14.01-2.79,21.15-4.21-5.78.42-7.95.07-9.97-.31,10.33-1.72,24.96-3.82,35.29-5.48-10.34,1.66-24.96,3.76-35.29,5.48,2.02.38,4.19.73,9.97.31,25.6-5.04,53.21-10.28,81.32-15.33,28.1-5.04,56.77-9.84,84.35-14.64-.23-.02-.54-.04-.77-.05-32.32,5.34-63.91,9.87-97.62,14.26,14.57-1.96,12.87-1.14-3.65,1.68-4.28.39-8.59.78-12.82,1.16,14.35-2.68,28.69-5.29,42.89-7.58,14.2-2.28,28.25-4.24,42.01-5.68,0,0,12.28-2.36,18.35-3.53,9.17-1.17,8.85-.51,10.85-.3,6.29-1.03,12.67-2.08,19.06-3.13-6.81.56-20.87,2.23-33.24,3.74-12.36,1.53-23.03,2.86-23.03,2.86Z"/>
        <path class="cls-1" d="M373.13,512.49c4.37-.85,9.75-1.88,15.48-2.99-20.83,3.74-41.68,7.48-62.61,11.24,11.24-1.05,29.14-4.67,47.12-8.25Z"/>
      </g>
    </g>
  </g>
</svg>