{
  "asset": {
    "version": "2.0",
    "generator": "THREE.GLTFExporter r181"
  },
  "scenes": [
    {
      "name": "AuxScene",
      "nodes": [
        0
      ]
    }
  ],
  "scene": 0,
  "nodes": [
    {
      "children": [
        1
      ]
    },
    {
      "children": [
        2
      ]
    },
    {
      "children": [
        3
      ]
    },
    {
      "children": [
        4
      ]
    },
    {
      "rotation": [
        0,
        0.3826834323650898,
        0,
        0.9238795325112867
      ],
      "scale": [
        0.4864049807870032,
        -0.4864049807870032,
        0.4864049807870032
      ],
      "children": [
        5
      ]
    },
    {
      "children": [
        6,
        7,
        8
      ]
    },
    {
      "translation": [
        -64.70500183105469,
        -102.80000305175781,
        -19.75
      ],
      "mesh": 0
    },
    {
      "translation": [
        -64.70500183105469,
        -102.80000305175781,
        -19.75
      ],
      "mesh": 1
    },
    {
      "translation": [
        -64.70500183105469,
        -102.80000305175781,
        -19.75
      ],
      "mesh": 2
    }
  ],
  "bufferViews": [
    {
      "buffer": 0,
      "byteOffset": 0,
      "byteLength": 47520,
      "target": 34962,
      "byteStride": 12
    },
    {
      "buffer": 0,
      "byteOffset": 47520,
      "byteLength": 31680,
      "target": 34962,
      "byteStride": 8
    },
    {
      "buffer": 0,
      "byteOffset": 79200,
      "byteLength": 47520,
      "target": 34962,
      "byteStride": 12
    },
    {
      "buffer": 0,
      "byteOffset": 126720,
      "byteLength": 37584,
      "target": 34962,
      "byteStride": 12
    },
    {
      "buffer": 0,
      "byteOffset": 164304,
      "byteLength": 25056,
      "target": 34962,
      "byteStride": 8
    },
    {
      "buffer": 0,
      "byteOffset": 189360,
      "byteLength": 37584,
      "target": 34962,
      "byteStride": 12
    },
    {
      "buffer": 0,
      "byteOffset": 226944,
      "byteLength": 47520,
      "target": 34962,
      "byteStride": 12
    },
    {
      "buffer": 0,
      "byteOffset": 274464,
      "byteLength": 31680,
      "target": 34962,
      "byteStride": 8
    },
    {
      "buffer": 0,
      "byteOffset": 306144,
      "byteLength": 47520,
      "target": 34962,
      "byteStride": 12
    }
  ],
  "buffers": [
    {
      "byteLength": 353664,
      "uri": "data:application/octet-stream;base64,"
    }
  ],
  "accessors": [
    {
      "bufferView": 0,
      "componentType": 5126,
      "count": 3960,
      "max": [
        55.79999923706055,
        205.60000610351562,
        39.5
      ],
      "min": [
        0,
        0,
        0
      ],
      "type": "VEC3"
    },
    {
      "bufferView": 1,
      "componentType": 5126,
      "count": 3960,
      "max": [
        205.60000610351562,
        205.60000610351562
      ],
      "min": [
        0,
        -38.5
      ],
      "type": "VEC2"
    },
    {
      "bufferView": 2,
      "componentType": 5126,
      "count": 3960,
      "max": [
        1,
        0.9999973773956299,
        1
      ],
      "min": [
        -1,
        -0.9999979138374329,
        -1
      ],
      "type": "VEC3"
    },
    {
      "bufferView": 3,
      "componentType": 5126,
      "count": 3132,
      "max": [
        88.13999938964844,
        93.77999877929688,
        39.5
      ],
      "min": [
        41.72999954223633,
        82.76000213623047,
        0
      ],
      "type": "VEC3"
    },
    {
      "bufferView": 4,
      "componentType": 5126,
      "count": 3132,
      "max": [
        93.77999877929688,
        93.08000183105469
      ],
      "min": [
        41.72999954223633,
        -38.5
      ],
      "type": "VEC2"
    },
    {
      "bufferView": 5,
      "componentType": 5126,
      "count": 3132,
      "max": [
        1,
        1,
        1
      ],
      "min": [
        -1,
        -1,
        -1
      ],
      "type": "VEC3"
    },
    {
      "bufferView": 6,
      "componentType": 5126,
      "count": 3960,
      "max": [
        129.41000366210938,
        205.60000610351562,
        39.5
      ],
      "min": [
        73.61000061035156,
        -1.1102230246251565e-15,
        0
      ],
      "type": "VEC3"
    },
    {
      "bufferView": 7,
      "componentType": 5126,
      "count": 3960,
      "max": [
        205.60000610351562,
        205.60000610351562
      ],
      "min": [
        -1.1102230246251565e-15,
        -38.5
      ],
      "type": "VEC2"
    },
    {
      "bufferView": 8,
      "componentType": 5126,
      "count": 3960,
      "max": [
        1,
        0.9999973773956299,
        1
      ],
      "min": [
        -1,
        -0.9999979138374329,
        -1
      ],
      "type": "VEC3"
    }
  ],
  "materials": [
    {
      "pbrMetallicRoughness": {
        "baseColorFactor": [
          0.8307698767709715,
          0.7835377915215659,
          0.7156935005005721,
          1
        ],
        "metallicFactor": 0,
        "roughnessFactor": 0.15
      },
      "doubleSided": true,
      "extras": {
        "originalProperties": {
          "color": 15459804,
          "roughness": 0.15,
          "metalness": 0,
          "clearcoat": 0.8,
          "clearcoatRoughness": 0.045,
          "transmission": 0,
          "ior": 1.4,
          "opacity": 1,
          "sheen": 0,
          "sheenRoughness": 0
        },
        "isHole": false
      },
      "extensions": {
        "KHR_materials_ior": {
          "ior": 1.4
        },
        "KHR_materials_clearcoat": {
          "clearcoatFactor": 0.8,
          "clearcoatRoughnessFactor": 0.045
        }
      }
    },
    {
      "pbrMetallicRoughness": {
        "baseColorFactor": [
          0.8307698767709715,
          0.7835377915215659,
          0.7156935005005721,
          1
        ],
        "metallicFactor": 0,
        "roughnessFactor": 0.15
      },
      "doubleSided": true,
      "extras": {
        "originalProperties": {
          "color": 15459804,
          "roughness": 0.15,
          "metalness": 0,
          "clearcoat": 0.8,
          "clearcoatRoughness": 0.045,
          "transmission": 0,
          "ior": 1.4,
          "opacity": 1,
          "sheen": 0,
          "sheenRoughness": 0
        },
        "isHole": false
      },
      "extensions": {
        "KHR_materials_ior": {
          "ior": 1.4
        },
        "KHR_materials_clearcoat": {
          "clearcoatFactor": 0.8,
          "clearcoatRoughnessFactor": 0.045
        }
      }
    },
    {
      "pbrMetallicRoughness": {
        "baseColorFactor": [
          0.8307698767709715,
          0.7835377915215659,
          0.7156935005005721,
          1
        ],
        "metallicFactor": 0,
        "roughnessFactor": 0.15
      },
      "doubleSided": true,
      "extras": {
        "originalProperties": {
          "color": 15459804,
          "roughness": 0.15,
          "metalness": 0,
          "clearcoat": 0.8,
          "clearcoatRoughness": 0.045,
          "transmission": 0,
          "ior": 1.4,
          "opacity": 1,
          "sheen": 0,
          "sheenRoughness": 0
        },
        "isHole": false
      },
      "extensions": {
        "KHR_materials_ior": {
          "ior": 1.4
        },
        "KHR_materials_clearcoat": {
          "clearcoatFactor": 0.8,
          "clearcoatRoughnessFactor": 0.045
        }
      }
    }
  ],
  "meshes": [
    {
      "primitives": [
        {
          "mode": 4,
          "attributes": {
            "POSITION": 0,
            "TEXCOORD_0": 1,
            "NORMAL": 2
          },
          "material": 0
        }
      ]
    },
    {
      "primitives": [
        {
          "mode": 4,
          "attributes": {
            "POSITION": 3,
            "TEXCOORD_0": 4,
            "NORMAL": 5
          },
          "material": 1
        }
      ]
    },
    {
      "primitives": [
        {
          "mode": 4,
          "attributes": {
            "POSITION": 6,
            "TEXCOORD_0": 7,
            "NORMAL": 8
          },
          "material": 2
        }
      ]
    }
  ],
  "extensionsUsed": [
    "KHR_materials_ior",
    "KHR_materials_clearcoat"
  ]
}