{
  "accessors": [
    {
      "bufferView": 2,
      "componentType": 5126,
      "count": 1474,
      "max": [
        20.0758056640625,
        1.4276037216186523,
        1.0553863048553467
      ],
      "min": [
        -0.9972105622291565,
        -0.9272634387016296,
        -9.997042655944824
      ],
      "type": "VEC3"
    },
    {
      "bufferView": 2,
      "byteOffset": 17688,
      "componentType": 5126,
      "count": 1474,
      "max": [
        1.0,
        1.0,
        0.9992080330848694
      ],
      "min": [
        -1.0,
        -1.0,
        -1.0
      ],
      "type": "VEC3"
    },
    {
      "bufferView": 1,
      "componentType": 5126,
      "count": 1474,
      "max": [
        0.7619044780731201,
        1.0
      ],
      "min": [
        0.23809468746185303,
        0.5
      ],
      "type": "VEC2"
    },
    {
      "bufferView": 0,
      "componentType": 5125,
      "count": 2376,
      "type": "SCALAR"
    },
    {
      "bufferView": 2,
      "byteOffset": 35376,
      "componentType": 5126,
      "count": 346,
      "max": [
        0.9998323917388916,
        1.000000238418579,
        0.8319039344787598
      ],
      "min": [
        -0.9969819188117981,
        -1.000000238418579,
        -7.3531012535095215
      ],
      "type": "VEC3"
    },
    {
      "bufferView": 2,
      "byteOffset": 39528,
      "componentType": 5126,
      "count": 346,
      "max": [
        1.0,
        1.0,
        0.9992080330848694
      ],
      "min": [
        -1.0,
        -1.0,
        -1.0
      ],
      "type": "VEC3"
    },
    {
      "bufferView": 1,
      "byteOffset": 11792,
      "componentType": 5126,
      "count": 346,
      "max": [
        0.7619044780731201,
        1.0000001192092896
      ],
      "min": [
        0.23809468746185303,
        0.4999999403953552
      ],
      "type": "VEC2"
    },
    {
      "bufferView": 0,
      "byteOffset": 9504,
      "componentType": 5125,
      "count": 636,
      "type": "SCALAR"
    },
    {
      "bufferView": 2,
      "byteOffset": 43680,
      "componentType": 5126,
      "count": 346,
      "max": [
        0.9998323917388916,
        1.000000238418579,
        0.8319039344787598
      ],
      "min": [
        -0.9969819188117981,
        -1.000000238418579,
        -7.3531012535095215
      ],
      "type": "VEC3"
    },
    {
      "bufferView": 2,
      "byteOffset": 47832,
      "componentType": 5126,
      "count": 346,
      "max": [
        1.0,
        1.0,
        0.9992080330848694
      ],
      "min": [
        -1.0,
        -1.0,
        -1.0
      ],
      "type": "VEC3"
    },
    {
      "bufferView": 1,
      "byteOffset": 14560,
      "componentType": 5126,
      "count": 346,
      "max": [
        0.7619044780731201,
        1.0000001192092896
      ],
      "min": [
        0.23809468746185303,
        0.4999999403953552
      ],
      "type": "VEC2"
    },
    {
      "bufferView": 0,
      "byteOffset": 12048,
      "componentType": 5125,
      "count": 636,
      "type": "SCALAR"
    },
    {
      "bufferView": 2,
      "byteOffset": 51984,
      "componentType": 5126,
      "count": 346,
      "max": [
        0.9998323917388916,
        1.000000238418579,
        0.8319039344787598
      ],
      "min": [
        -0.9969819188117981,
        -1.000000238418579,
        -7.3531012535095215
      ],
      "type": "VEC3"
    },
    {
      "bufferView": 2,
      "byteOffset": 56136,
      "componentType": 5126,
      "count": 346,
      "max": [
        1.0,
        1.0,
        0.9992080330848694
      ],
      "min": [
        -1.0,
        -1.0,
        -1.0
      ],
      "type": "VEC3"
    },
    {
      "bufferView": 1,
      "byteOffset": 17328,
      "componentType": 5126,
      "count": 346,
      "max": [
        0.7619044780731201,
        1.0000001192092896
      ],
      "min": [
        0.23809468746185303,
        0.4999999403953552
      ],
      "type": "VEC2"
    },
    {
      "bufferView": 0,
      "byteOffset": 14592,
      "componentType": 5125,
      "count": 636,
      "type": "SCALAR"
    },
    {
      "bufferView": 2,
      "byteOffset": 60288,
      "componentType": 5126,
      "count": 346,
      "max": [
        0.9998323917388916,
        1.000000238418579,
        0.8319039344787598
      ],
      "min": [
        -0.9969819188117981,
        -1.000000238418579,
        -7.3531012535095215
      ],
      "type": "VEC3"
    },
    {
      "bufferView": 2,
      "byteOffset": 64440,
      "componentType": 5126,
      "count": 346,
      "max": [
        1.0,
        1.0,
        0.9992080330848694
      ],
      "min": [
        -1.0,
        -1.0,
        -1.0
      ],
      "type": "VEC3"
    },
    {
      "bufferView": 1,
      "byteOffset": 20096,
      "componentType": 5126,
      "count": 346,
      "max": [
        0.7619044780731201,
        1.0000001192092896
      ],
      "min": [
        0.23809468746185303,
        0.4999999403953552
      ],
      "type": "VEC2"
    },
    {
      "bufferView": 0,
      "byteOffset": 17136,
      "componentType": 5125,
      "count": 636,
      "type": "SCALAR"
    },
    {
      "bufferView": 2,
      "byteOffset": 68592,
      "componentType": 5126,
      "count": 346,
      "max": [
        0.9998323917388916,
        1.000000238418579,
        0.8319039344787598
      ],
      "min": [
        -0.9969819188117981,
        -1.000000238418579,
        -7.3531012535095215
      ],
      "type": "VEC3"
    },
    {
      "bufferView": 2,
      "byteOffset": 72744,
      "componentType": 5126,
      "count": 346,
      "max": [
        1.0,
        1.0,
        0.9992080330848694
      ],
      "min": [
        -1.0,
        -1.0,
        -1.0
      ],
      "type": "VEC3"
    },
    {
      "bufferView": 1,
      "byteOffset": 22864,
      "componentType": 5126,
      "count": 346,
      "max": [
        0.7619044780731201,
        1.0000001192092896
      ],
      "min": [
        0.23809468746185303,
        0.4999999403953552
      ],
      "type": "VEC2"
    },
    {
      "bufferView": 0,
      "byteOffset": 19680,
      "componentType": 5125,
      "count": 636,
      "type": "SCALAR"
    },
    {
      "bufferView": 2,
      "byteOffset": 76896,
      "componentType": 5126,
      "count": 346,
      "max": [
        0.9998323917388916,
        1.000000238418579,
        0.8319039344787598
      ],
      "min": [
        -0.9969819188117981,
        -1.000000238418579,
        -7.3531012535095215
      ],
      "type": "VEC3"
    },
    {
      "bufferView": 2,
      "byteOffset": 81048,
      "componentType": 5126,
      "count": 346,
      "max": [
        1.0,
        1.0,
        0.9992080330848694
      ],
      "min": [
        -1.0,
        -1.0,
        -1.0
      ],
      "type": "VEC3"
    },
    {
      "bufferView": 1,
      "byteOffset": 25632,
      "componentType": 5126,
      "count": 346,
      "max": [
        0.7619044780731201,
        1.0000001192092896
      ],
      "min": [
        0.23809468746185303,
        0.4999999403953552
      ],
      "type": "VEC2"
    },
    {
      "bufferView": 0,
      "byteOffset": 22224,
      "componentType": 5125,
      "count": 636,
      "type": "SCALAR"
    },
    {
      "bufferView": 2,
      "byteOffset": 85200,
      "componentType": 5126,
      "count": 346,
      "max": [
        0.9998323917388916,
        1.000000238418579,
        0.8319039344787598
      ],
      "min": [
        -0.9969819188117981,
        -1.000000238418579,
        -7.3531012535095215
      ],
      "type": "VEC3"
    },
    {
      "bufferView": 2,
      "byteOffset": 89352,
      "componentType": 5126,
      "count": 346,
      "max": [
        1.0,
        1.0,
        0.9992080330848694
      ],
      "min": [
        -1.0,
        -1.0,
        -1.0
      ],
      "type": "VEC3"
    },
    {
      "bufferView": 1,
      "byteOffset": 28400,
      "componentType": 5126,
      "count": 346,
      "max": [
        0.7619044780731201,
        1.0000001192092896
      ],
      "min": [
        0.23809468746185303,
        0.4999999403953552
      ],
      "type": "VEC2"
    },
    {
      "bufferView": 0,
      "byteOffset": 24768,
      "componentType": 5125,
      "count": 636,
      "type": "SCALAR"
    },
    {
      "bufferView": 2,
      "byteOffset": 93504,
      "componentType": 5126,
      "count": 346,
      "max": [
        0.9998323917388916,
        1.000000238418579,
        0.8319039344787598
      ],
      "min": [
        -0.9969819188117981,
        -1.000000238418579,
        -7.3531012535095215
      ],
      "type": "VEC3"
    },
    {
      "bufferView": 2,
      "byteOffset": 97656,
      "componentType": 5126,
      "count": 346,
      "max": [
        1.0,
        1.0,
        0.9992080330848694
      ],
      "min": [
        -1.0,
        -1.0,
        -1.0
      ],
      "type": "VEC3"
    },
    {
      "bufferView": 1,
      "byteOffset": 31168,
      "componentType": 5126,
      "count": 346,
      "max": [
        0.7619044780731201,
        1.0000001192092896
      ],
      "min": [
        0.23809468746185303,
        0.4999999403953552
      ],
      "type": "VEC2"
    },
    {
      "bufferView": 0,
      "byteOffset": 27312,
      "componentType": 5125,
      "count": 636,
      "type": "SCALAR"
    },
    {
      "bufferView": 2,
      "byteOffset": 101808,
      "componentType": 5126,
      "count": 346,
      "max": [
        0.9998323917388916,
        1.000000238418579,
        0.8319039344787598
      ],
      "min": [
        -0.9969819188117981,
        -1.000000238418579,
        -7.3531012535095215
      ],
      "type": "VEC3"
    },
    {
      "bufferView": 2,
      "byteOffset": 105960,
      "componentType": 5126,
      "count": 346,
      "max": [
        1.0,
        1.0,
        0.9992080330848694
      ],
      "min": [
        -1.0,
        -1.0,
        -1.0
      ],
      "type": "VEC3"
    },
    {
      "bufferView": 1,
      "byteOffset": 33936,
      "componentType": 5126,
      "count": 346,
      "max": [
        0.7619044780731201,
        1.0000001192092896
      ],
      "min": [
        0.23809468746185303,
        0.4999999403953552
      ],
      "type": "VEC2"
    },
    {
      "bufferView": 0,
      "byteOffset": 29856,
      "componentType": 5125,
      "count": 636,
      "type": "SCALAR"
    }
  ],
  "asset": {
    "extras": {
      "author": "Jackie_is_Backie (https://sketchfab.com/jackie_is_backie)",
      "license": "SKETCHFAB Standard (https://sketchfab.com/licenses)",
      "source": "https://sketchfab.com/3d-models/stack-of-books-7683d1d165f74c6f86222532aa974e2c",
      "title": "Stack of Books"
    },
    "generator": "Sketchfab-16.74.0",
    "version": "2.0"
  },
  "bufferViews": [
    {
      "buffer": 0,
      "byteLength": 32400,
      "name": "floatBufferViews",
      "target": 34963
    },
    {
      "buffer": 0,
      "byteLength": 36704,
      "byteOffset": 32400,
      "byteStride": 8,
      "name": "floatBufferViews",
      "target": 34962
    },
    {
      "buffer": 0,
      "byteLength": 110112,
      "byteOffset": 69104,
      "byteStride": 12,
      "name": "floatBufferViews",
      "target": 34962
    }
  ],
  "buffers": [
    {
      "byteLength": 179216,
      "uri": "scene.bin"
    }
  ],
  "materials": [
    {
      "doubleSided": true,
      "name": "Pages",
      "pbrMetallicRoughness": {
        "baseColorFactor": [
          0.8,
          0.717094,
          0.499421,
          1.0
        ],
        "metallicFactor": 0.0,
        "roughnessFactor": 0.5
      }
    },
    {
      "doubleSided": true,
      "name": "yellow",
      "pbrMetallicRoughness": {
        "baseColorFactor": [
          0.329892,
          0.170651,
          0.0,
          1.0
        ],
        "metallicFactor": 0.0,
        "roughnessFactor": 0.5
      }
    },
    {
      "doubleSided": true,
      "name": "black",
      "pbrMetallicRoughness": {
        "baseColorFactor": [
          0.0262398,
          0.0262398,
          0.0262398,
          1.0
        ],
        "metallicFactor": 0.0,
        "roughnessFactor": 0.4
      }
    },
    {
      "doubleSided": true,
      "name": "material",
      "pbrMetallicRoughness": {
        "baseColorFactor": [
          0.19712,
          0.0,
          0.00105928,
          1.0
        ],
        "metallicFactor": 0.0,
        "roughnessFactor": 0.5
      }
    }
  ],
  "meshes": [
    {
      "name": "Object_0",
      "primitives": [
        {
          "attributes": {
            "NORMAL": 1,
            "POSITION": 0,
            "TEXCOORD_0": 2
          },
          "indices": 3,
          "material": 0,
          "mode": 4
        }
      ]
    },
    {
      "name": "Object_1",
      "primitives": [
        {
          "attributes": {
            "NORMAL": 5,
            "POSITION": 4,
            "TEXCOORD_0": 6
          },
          "indices": 7,
          "material": 1,
          "mode": 4
        }
      ]
    },
    {
      "name": "Object_2",
      "primitives": [
        {
          "attributes": {
            "NORMAL": 9,
            "POSITION": 8,
            "TEXCOORD_0": 10
          },
          "indices": 11,
          "material": 2,
          "mode": 4
        }
      ]
    },
    {
      "name": "Object_3",
      "primitives": [
        {
          "attributes": {
            "NORMAL": 13,
            "POSITION": 12,
            "TEXCOORD_0": 14
          },
          "indices": 15,
          "material": 3,
          "mode": 4
        }
      ]
    },
    {
      "name": "Object_4",
      "primitives": [
        {
          "attributes": {
            "NORMAL": 17,
            "POSITION": 16,
            "TEXCOORD_0": 18
          },
          "indices": 19,
          "material": 1,
          "mode": 4
        }
      ]
    },
    {
      "name": "Object_5",
      "primitives": [
        {
          "attributes": {
            "NORMAL": 21,
            "POSITION": 20,
            "TEXCOORD_0": 22
          },
          "indices": 23,
          "material": 2,
          "mode": 4
        }
      ]
    },
    {
      "name": "Object_6",
      "primitives": [
        {
          "attributes": {
            "NORMAL": 25,
            "POSITION": 24,
            "TEXCOORD_0": 26
          },
          "indices": 27,
          "material": 3,
          "mode": 4
        }
      ]
    },
    {
      "name": "Object_7",
      "primitives": [
        {
          "attributes": {
            "NORMAL": 29,
            "POSITION": 28,
            "TEXCOORD_0": 30
          },
          "indices": 31,
          "material": 2,
          "mode": 4
        }
      ]
    },
    {
      "name": "Object_8",
      "primitives": [
        {
          "attributes": {
            "NORMAL": 33,
            "POSITION": 32,
            "TEXCOORD_0": 34
          },
          "indices": 35,
          "material": 3,
          "mode": 4
        }
      ]
    },
    {
      "name": "Object_9",
      "primitives": [
        {
          "attributes": {
            "NORMAL": 37,
            "POSITION": 36,
            "TEXCOORD_0": 38
          },
          "indices": 39,
          "material": 2,
          "mode": 4
        }
      ]
    }
  ],
  "nodes": [
    {
      "children": [
        1
      ],
      "matrix": [
        1.0,
        0.0,
        0.0,
        0.0,
        0.0,
        2.220446049250313e-16,
        -1.0,
        0.0,
        0.0,
        1.0,
        2.220446049250313e-16,
        0.0,
        0.0,
        0.0,
        0.0,
        1.0
      ],
      "name": "Sketchfab_model"
    },
    {
      "children": [
        2
      ],
      "name": "root"
    },
    {
      "children": [
        3,
        5,
        7,
        9,
        11,
        13,
        15,
        17,
        19,
        21
      ],
      "matrix": [
        1.0,
        0.0,
        0.0,
        0.0,
        0.0,
        2.220446049250313e-16,
        1.0,
        0.0,
        0.0,
        -1.0,
        2.220446049250313e-16,
        0.0,
        0.0,
        0.0,
        0.0,
        1.0
      ],
      "name": "GLTF_SceneRootNode"
    },
    {
      "children": [
        4
      ],
      "matrix": [
        -0.00014600049033783067,
        0.0,
        0.17172761015546703,
        0.0,
        0.0,
        1.3711358308792114,
        0.0,
        0.0,
        -0.17172761015546703,
        0.0,
        -0.00014600049033783067,
        0.0,
        0.022512823343276978,
        1.3549821376800537,
        -1.684407114982605,
        1.0
      ],
      "name": "pages_0"
    },
    {
      "mesh": 0,
      "name": "Object_4"
    },
    {
      "children": [
        6
      ],
      "matrix": [
        -0.0002077997961363211,
        0.0,
        0.24441672968845657,
        0.0,
        -0.0,
        1.5084760189056396,
        0.0,
        0.0,
        -0.24441672968845657,
        0.0,
        -0.0002077997961363211,
        0.0,
        0.0,
        1.5532392263412476,
        -0.022788140922784805,
        1.0
      ],
      "name": "cover_2"
    },
    {
      "mesh": 1,
      "name": "Object_6"
    },
    {
      "children": [
        8
      ],
      "matrix": [
        -0.00017058927594451826,
        0.0,
        0.20064924856292027,
        0.0,
        -0.0,
        1.6247972249984741,
        0.0,
        0.0,
        -0.25421008221003794,
        0.0,
        -0.00021612597192661868,
        0.0,
        -0.00048461277037858963,
        1.6679396629333496,
        0.4215414226055145,
        1.0
      ],
      "name": "cover.001_3"
    },
    {
      "mesh": 2,
      "name": "Object_8"
    },
    {
      "children": [
        10
      ],
      "matrix": [
        -0.00017058927594451826,
        0.0,
        0.20064924856292027,
        0.0,
        -0.0,
        1.6754308938980103,
        0.0,
        0.0,
        -0.25421008221003794,
        0.0,
        -0.00021612597192661868,
        0.0,
        -0.00048461277037858963,
        1.7217450141906738,
        -0.4642523527145386,
        1.0
      ],
      "name": "cover.002_4"
    },
    {
      "mesh": 3,
      "name": "Object_10"
    },
    {
      "children": [
        12
      ],
      "matrix": [
        -0.00014549137083847704,
        0.0,
        0.1711287774069931,
        0.0,
        0.0,
        1.4289332628250122,
        0.0,
        0.0,
        -0.21680947753139876,
        0.0,
        -0.00018432848393345775,
        0.0,
        0.0013661067932844162,
        1.4723204374313354,
        -0.8348139524459839,
        1.0
      ],
      "name": "cover.003_5"
    },
    {
      "mesh": 4,
      "name": "Object_12"
    },
    {
      "children": [
        14
      ],
      "matrix": [
        -0.00014159534676013775,
        0.0,
        0.16654622496122232,
        0.0,
        0.0,
        1.4738624095916748,
        0.0,
        0.0,
        -0.21680946263024295,
        0.0,
        -0.00018432847126469671,
        0.0,
        0.0013661067932844162,
        1.5133391618728638,
        0.7881572246551514,
        1.0
      ],
      "name": "cover.004_6"
    },
    {
      "mesh": 5,
      "name": "Object_14"
    },
    {
      "children": [
        16
      ],
      "matrix": [
        -0.00020004175093423643,
        0.0,
        0.23529161949910485,
        0.0,
        0.0,
        1.4521582126617432,
        0.0,
        0.0,
        -0.23529161949910485,
        0.0,
        -0.00020004175093423643,
        0.0,
        0.0004515433683991432,
        1.5031052827835083,
        -1.239392638206482,
        1.0
      ],
      "name": "cover.005_7"
    },
    {
      "mesh": 6,
      "name": "Object_16"
    },
    {
      "children": [
        18
      ],
      "matrix": [
        -0.00017899632910520612,
        0.0,
        0.21053773006318277,
        0.0,
        0.0,
        1.2993838787078857,
        0.0,
        0.0,
        -0.21053773006318277,
        0.0,
        -0.00017899632910520612,
        0.0,
        0.0016764560714364052,
        1.3549821376800537,
        -1.6844654083251953,
        1.0
      ],
      "name": "cover.006_8"
    },
    {
      "mesh": 7,
      "name": "Object_18"
    },
    {
      "children": [
        20
      ],
      "matrix": [
        -0.00017899632910520612,
        0.0,
        0.21053773006318277,
        0.0,
        0.0,
        1.2993838787078857,
        0.0,
        0.0,
        -0.21053773006318277,
        0.0,
        -0.00017899632910520612,
        0.0,
        0.0016764560714364052,
        1.3338819742202759,
        1.5915883779525757,
        1.0
      ],
      "name": "cover.007_9"
    },
    {
      "mesh": 8,
      "name": "Object_20"
    },
    {
      "children": [
        22
      ],
      "matrix": [
        -0.00018285370079365495,
        0.0,
        0.215074819082582,
        0.0,
        0.0,
        1.4649856090545654,
        0.0,
        0.0,
        -0.215074819082582,
        0.0,
        -0.00018285370079365495,
        0.0,
        0.001451944001019001,
        1.5031052827835083,
        1.167043685913086,
        1.0
      ],
      "name": "cover.008_10"
    },
    {
      "mesh": 9,
      "name": "Object_22"
    }
  ],
  "scene": 0,
  "scenes": [
    {
      "name": "Sketchfab_Scene",
      "nodes": [
        0
      ]
    }
  ]
}
