{
  "accessors": [
    {
      "bufferView": 2,
      "componentType": 5126,
      "count": 29715,
      "max": [
        11.337498664855957,
        -0.4076118469238281,
        2.1478161811828613
      ],
      "min": [
        -14.901581764221191,
        -36.792381286621094,
        -7.2452850341796875
      ],
      "type": "VEC3"
    },
    {
      "bufferView": 2,
      "byteOffset": 356580,
      "componentType": 5126,
      "count": 29715,
      "max": [
        0.9999995231628418,
        0.9999979138374329,
        0.9999998211860657
      ],
      "min": [
        -0.999995231628418,
        -0.9999987483024597,
        -0.9999768137931824
      ],
      "type": "VEC3"
    },
    {
      "bufferView": 1,
      "componentType": 5126,
      "count": 29715,
      "max": [
        0.9996935725212097,
        0.9978026151657104
      ],
      "min": [
        0.000244140625,
        0.00027348531875759363
      ],
      "type": "VEC2"
    },
    {
      "bufferView": 0,
      "componentType": 5125,
      "count": 149970,
      "type": "SCALAR"
    }
  ],
  "asset": {
    "extras": {
      "author": "Emma.Dietrich (https://sketchfab.com/Emma.Dietrich)",
      "license": "CC-BY-4.0 (http://creativecommons.org/licenses/by/4.0/)",
      "source": "https://sketchfab.com/3d-models/the-blithedale-romance-by-nathaniel-hawthorne-93c7823382044a6489aa8e2cd160ae9f",
      "title": "The Blithedale Romance by Nathaniel Hawthorne"
    },
    "generator": "Sketchfab-13.21.0",
    "version": "2.0"
  },
  "bufferViews": [
    {
      "buffer": 0,
      "byteLength": 599880,
      "name": "floatBufferViews",
      "target": 34963
    },
    {
      "buffer": 0,
      "byteLength": 237720,
      "byteOffset": 599880,
      "byteStride": 8,
      "name": "floatBufferViews",
      "target": 34962
    },
    {
      "buffer": 0,
      "byteLength": 713160,
      "byteOffset": 837600,
      "byteStride": 12,
      "name": "floatBufferViews",
      "target": 34962
    }
  ],
  "buffers": [
    {
      "byteLength": 1550760,
      "uri": "scene.bin"
    }
  ],
  "images": [
    {
      "uri": "textures/Book_u1_v1_baseColor.jpeg"
    }
  ],
  "materials": [
    {
      "doubleSided": true,
      "name": "Book_u1_v1",
      "pbrMetallicRoughness": {
        "baseColorTexture": {
          "index": 0
        },
        "metallicFactor": 0.0,
        "roughnessFactor": 0.8613329107288707
      }
    }
  ],
  "meshes": [
    {
      "name": "Object_0",
      "primitives": [
        {
          "attributes": {
            "NORMAL": 1,
            "POSITION": 0,
            "TEXCOORD_0": 2
          },
          "indices": 3,
          "material": 0,
          "mode": 4
        }
      ]
    }
  ],
  "nodes": [
    {
      "children": [
        1
      ],
      "matrix": [
        -0.9582706093788147,
        -0.057969342917203966,
        0.27992329001426697,
        0.0,
        0.08907881379127502,
        -0.9910205602645874,
        0.0997158810496328,
        0.0,
        0.271629273891449,
        0.12049002945423105,
        0.9548296928405762,
        0.0,
        0.0,
        0.0,
        0.0,
        1.0
      ],
      "name": "Sketchfab_model"
    },
    {
      "children": [
        2
      ],
      "name": "Book.obj.cleaner.materialmerger.gles"
    },
    {
      "mesh": 0,
      "name": "Object_2"
    }
  ],
  "samplers": [
    {
      "magFilter": 9729,
      "minFilter": 9987,
      "wrapS": 10497,
      "wrapT": 10497
    }
  ],
  "scene": 0,
  "scenes": [
    {
      "name": "Sketchfab_Scene",
      "nodes": [
        0
      ]
    }
  ],
  "textures": [
    {
      "sampler": 0,
      "source": 0
    }
  ]
}
