{
  "accessors": [
    {
      "bufferView": 2,
      "componentType": 5126,
      "count": 4586,
      "max": [
        1.5102596282958984,
        4.165437698364258,
        0.8602814674377441
      ],
      "min": [
        -1.4972808361053467,
        0.27679142355918884,
        -0.8643009066581726
      ],
      "type": "VEC3"
    },
    {
      "bufferView": 2,
      "byteOffset": 55032,
      "componentType": 5126,
      "count": 4586,
      "max": [
        1.0,
        1.0,
        1.0
      ],
      "min": [
        -1.0,
        -1.0,
        -1.0
      ],
      "type": "VEC3"
    },
    {
      "bufferView": 3,
      "componentType": 5126,
      "count": 4586,
      "max": [
        1.0,
        1.0,
        1.0,
        1.0
      ],
      "min": [
        -1.0,
        -1.0,
        -1.0,
        -1.0
      ],
      "type": "VEC4"
    },
    {
      "bufferView": 1,
      "componentType": 5126,
      "count": 4586,
      "max": [
        0.9954996109008789,
        0.9977354407310486
      ],
      "min": [
        0.0018679517088457942,
        0.00199203216470778
      ],
      "type": "VEC2"
    },
    {
      "bufferView": 0,
      "componentType": 5125,
      "count": 14754,
      "type": "SCALAR"
    },
    {
      "bufferView": 2,
      "byteOffset": 110064,
      "componentType": 5126,
      "count": 271,
      "max": [
        0.8528151512145996,
        3.8256144523620605,
        1.034523606300354
      ],
      "min": [
        -0.8528153300285339,
        2.1199841499328613,
        0.7859926223754883
      ],
      "type": "VEC3"
    },
    {
      "bufferView": 2,
      "byteOffset": 113316,
      "componentType": 5126,
      "count": 271,
      "max": [
        0.8786226511001587,
        0.9743483662605286,
        1.0
      ],
      "min": [
        -0.8786227107048035,
        -0.9743486642837524,
        0.11370543390512466
      ],
      "type": "VEC3"
    },
    {
      "bufferView": 3,
      "byteOffset": 73376,
      "componentType": 5126,
      "count": 271,
      "max": [
        0.7391555309295654,
        1.0,
        0.9933490753173828,
        1.0
      ],
      "min": [
        -0.11187952756881714,
        -0.17868965864181519,
        -0.9933490753173828,
        1.0
      ],
      "type": "VEC4"
    },
    {
      "bufferView": 1,
      "byteOffset": 36688,
      "componentType": 5126,
      "count": 271,
      "max": [
        0.9720627665519714,
        0.9980080127716064
      ],
      "min": [
        0.007395915687084198,
        -0.012525219470262527
      ],
      "type": "VEC2"
    },
    {
      "bufferView": 0,
      "byteOffset": 59016,
      "componentType": 5125,
      "count": 1140,
      "type": "SCALAR"
    },
    {
      "bufferView": 2,
      "byteOffset": 116568,
      "componentType": 5126,
      "count": 2224,
      "max": [
        1.1036341190338135,
        3.1961092948913574,
        0.6376218795776367
      ],
      "min": [
        -1.1505670547485352,
        2.5403459072113037,
        -0.6517555713653564
      ],
      "type": "VEC3"
    },
    {
      "bufferView": 2,
      "byteOffset": 143256,
      "componentType": 5126,
      "count": 2224,
      "max": [
        1.0,
        1.0,
        1.0
      ],
      "min": [
        -1.0,
        -1.0,
        -1.0
      ],
      "type": "VEC3"
    },
    {
      "bufferView": 3,
      "byteOffset": 77712,
      "componentType": 5126,
      "count": 2224,
      "max": [
        1.0,
        1.0,
        1.0,
        1.0
      ],
      "min": [
        -0.8090173602104187,
        -1.0,
        -1.0,
        1.0
      ],
      "type": "VEC4"
    },
    {
      "bufferView": 1,
      "byteOffset": 38856,
      "componentType": 5126,
      "count": 2224,
      "max": [
        0.9980080127716064,
        0.9970189332962036
      ],
      "min": [
        0.00199203216470778,
        0.001990057760849595
      ],
      "type": "VEC2"
    },
    {
      "bufferView": 0,
      "byteOffset": 63576,
      "componentType": 5125,
      "count": 4296,
      "type": "SCALAR"
    }
  ],
  "asset": {
    "extras": {
      "author": "Zerostyle (https://sketchfab.com/hoanganh.trine)",
      "license": "CC-BY-4.0 (http://creativecommons.org/licenses/by/4.0/)",
      "source": "https://sketchfab.com/3d-models/victorian-clock-5d1d458bea9d4da48f252130055083fc",
      "title": "Victorian Clock"
    },
    "generator": "Sketchfab-14.34.0",
    "version": "2.0"
  },
  "bufferViews": [
    {
      "buffer": 0,
      "byteLength": 80760,
      "name": "floatBufferViews",
      "target": 34963
    },
    {
      "buffer": 0,
      "byteLength": 56648,
      "byteOffset": 80760,
      "byteStride": 8,
      "name": "floatBufferViews",
      "target": 34962
    },
    {
      "buffer": 0,
      "byteLength": 169944,
      "byteOffset": 137408,
      "byteStride": 12,
      "name": "floatBufferViews",
      "target": 34962
    },
    {
      "buffer": 0,
      "byteLength": 113296,
      "byteOffset": 307352,
      "byteStride": 16,
      "name": "floatBufferViews",
      "target": 34962
    }
  ],
  "buffers": [
    {
      "byteLength": 420648,
      "uri": "scene.bin"
    }
  ],
  "images": [
    {
      "uri": "textures/lambert1_baseColor.jpeg"
    },
    {
      "uri": "textures/lambert1_metallicRoughness.png"
    },
    {
      "uri": "textures/lambert1_normal.png"
    },
    {
      "uri": "textures/glass_clock_baseColor.png"
    },
    {
      "uri": "textures/glass_clock_metallicRoughness.png"
    },
    {
      "uri": "textures/glass_clock_normal.png"
    },
    {
      "uri": "textures/clock_link_baseColor.jpeg"
    },
    {
      "uri": "textures/clock_link_metallicRoughness.png"
    },
    {
      "uri": "textures/clock_link_normal.png"
    }
  ],
  "materials": [
    {
      "doubleSided": true,
      "name": "lambert1",
      "normalTexture": {
        "index": 2
      },
      "occlusionTexture": {
        "index": 1
      },
      "pbrMetallicRoughness": {
        "baseColorTexture": {
          "index": 0
        },
        "metallicRoughnessTexture": {
          "index": 1
        }
      }
    },
    {
      "alphaMode": "BLEND",
      "doubleSided": true,
      "name": "glass_clock",
      "normalTexture": {
        "index": 5
      },
      "occlusionTexture": {
        "index": 4
      },
      "pbrMetallicRoughness": {
        "baseColorTexture": {
          "index": 3
        },
        "metallicRoughnessTexture": {
          "index": 4
        }
      }
    },
    {
      "doubleSided": true,
      "name": "clock_link",
      "normalTexture": {
        "index": 8
      },
      "pbrMetallicRoughness": {
        "baseColorTexture": {
          "index": 6
        },
        "metallicRoughnessTexture": {
          "index": 7
        }
      }
    }
  ],
  "meshes": [
    {
      "name": "polySurface6_lambert1_0",
      "primitives": [
        {
          "attributes": {
            "NORMAL": 1,
            "POSITION": 0,
            "TANGENT": 2,
            "TEXCOORD_0": 3
          },
          "indices": 4,
          "material": 0,
          "mode": 4
        }
      ]
    },
    {
      "name": "pasted__polySurface1_glass_clock_0",
      "primitives": [
        {
          "attributes": {
            "NORMAL": 6,
            "POSITION": 5,
            "TANGENT": 7,
            "TEXCOORD_0": 8
          },
          "indices": 9,
          "material": 1,
          "mode": 4
        }
      ]
    },
    {
      "name": "polySurface5_clock_link_0",
      "primitives": [
        {
          "attributes": {
            "NORMAL": 11,
            "POSITION": 10,
            "TANGENT": 12,
            "TEXCOORD_0": 13
          },
          "indices": 14,
          "material": 2,
          "mode": 4
        }
      ]
    }
  ],
  "nodes": [
    {
      "children": [
        1
      ],
      "matrix": [
        1.0,
        0.0,
        0.0,
        0.0,
        0.0,
        2.220446049250313e-16,
        -1.0,
        0.0,
        0.0,
        1.0,
        2.220446049250313e-16,
        0.0,
        0.0,
        0.0,
        0.0,
        1.0
      ],
      "name": "Sketchfab_model"
    },
    {
      "children": [
        2
      ],
      "matrix": [
        0.009999999776482582,
        0.0,
        0.0,
        0.0,
        0.0,
        0.0,
        0.009999999776482582,
        0.0,
        0.0,
        -0.009999999776482582,
        0.0,
        0.0,
        0.0,
        0.0,
        0.0,
        1.0
      ],
      "name": "clock.fbx"
    },
    {
      "children": [
        3,
        8,
        12
      ],
      "name": "RootNode"
    },
    {
      "children": [
        4
      ],
      "name": "pCylinder14"
    },
    {
      "children": [
        5
      ],
      "name": "polySurface2"
    },
    {
      "children": [
        6
      ],
      "name": "polySurface4"
    },
    {
      "children": [
        7
      ],
      "name": "polySurface6"
    },
    {
      "mesh": 0,
      "name": "polySurface6_lambert1_0"
    },
    {
      "children": [
        9
      ],
      "name": "group18"
    },
    {
      "children": [
        10
      ],
      "name": "pasted__pCylinder14"
    },
    {
      "children": [
        11
      ],
      "matrix": [
        1.0301401615142822,
        0.0,
        0.0,
        0.0,
        0.0,
        1.0301401615142822,
        0.0,
        0.0,
        0.0,
        0.0,
        1.0301401615142822,
        0.0,
        2.694742429198982e-09,
        -0.0801817998290062,
        -0.02743534743785858,
        1.0
      ],
      "name": "pasted__polySurface1"
    },
    {
      "mesh": 1,
      "name": "pasted__polySurface1_glass_clock_0"
    },
    {
      "children": [
        13
      ],
      "name": "polySurface5"
    },
    {
      "mesh": 2,
      "name": "polySurface5_clock_link_0"
    }
  ],
  "samplers": [
    {
      "magFilter": 9729,
      "minFilter": 9987,
      "wrapS": 10497,
      "wrapT": 10497
    }
  ],
  "scene": 0,
  "scenes": [
    {
      "name": "Sketchfab_Scene",
      "nodes": [
        0
      ]
    }
  ],
  "textures": [
    {
      "sampler": 0,
      "source": 0
    },
    {
      "sampler": 0,
      "source": 1
    },
    {
      "sampler": 0,
      "source": 2
    },
    {
      "sampler": 0,
      "source": 3
    },
    {
      "sampler": 0,
      "source": 4
    },
    {
      "sampler": 0,
      "source": 5
    },
    {
      "sampler": 0,
      "source": 6
    },
    {
      "sampler": 0,
      "source": 7
    },
    {
      "sampler": 0,
      "source": 8
    }
  ]
}
